<?xml version="1.0" standalone="no"?>
<!DOCTYPE svg PUBLIC "-//W3C//DTD SVG 1.1//EN" "http://www.w3.org/Graphics/SVG/1.1/DTD/svg11.dtd" >
<svg xmlns="http://www.w3.org/2000/svg" xmlns:xlink="http://www.w3.org/1999/xlink" version="1.1">
<metadata>
Created by FontForge 20170731 at Fri Jan  1 02:30:17 1904
 By Aleksey,,,
</metadata>
<defs>
<font id="HandelGothic-Italic" horiz-adv-x="387" >
  <font-face 
    font-family="Handel Gothic Italic"
    font-weight="400"
    font-style="italic"
    font-stretch="normal"
    units-per-em="1000"
    panose-1="0 0 6 0 0 0 0 9 0 0"
    ascent="800"
    descent="-200"
    x-height="527"
    cap-height="718"
    bbox="-117 -235 1393.67 809.571"
    underline-thickness="50"
    underline-position="-155"
    unicode-range="U+0020-F002"
  />
<missing-glyph 
 />
    <glyph glyph-name=".notdef" 
 />
    <glyph glyph-name="glyph1" horiz-adv-x="0" 
 />
    <glyph glyph-name="glyph2" 
 />
    <glyph glyph-name="space" unicode=" " 
 />
    <glyph glyph-name="space" unicode="&#xa0;" 
 />
    <glyph glyph-name="exclam" unicode="!" horiz-adv-x="313" 
d="M115 129h151l-34 -129h-151l34 129v0v0zM272 718h151l-143 -534h-151l143 534v0v0z" />
    <glyph glyph-name="quotedbl" unicode="&#x22;" horiz-adv-x="331" 
d="M227 702h94l-74 -273h-94l74 273v0v0zM386 702h94l-74 -273h-94l74 273v0v0z" />
    <glyph glyph-name="numbersign" unicode="#" horiz-adv-x="769" 
d="M537 715h108l-125 -203h118l126 203h108l-126 -203h138l-63 -98h-137l-72 -118h142l-61 -98h-142l-127 -202h-108l127 202h-119l-128 -202h-107l127 202h-141l63 98h138l73 118h-146l63 98h145l126 203v0v0zM456 414l-74 -119h123l73 119h-122v0v0z" />
    <glyph glyph-name="dollar" unicode="$" horiz-adv-x="751" 
d="M476 290l-43 -163q1 -1 2.5 -1h2.5h3.5h2.5h8h8h8h8q21 0 42 4.5t41 11.5q20 8 34 25.5t21 45.5q7 26 2.5 42t-19.5 22q-16 6 -33.5 9.5t-37.5 3.5h-6h-6h-6h-6q-4 -1 -7.5 -1h-6.5h-6h-6v1v0zM104 127h272l43 163q-4 -1 -7.5 -1h-7.5h-7.5h-6.5h-7.5h-7.5q-4 -1 -7.5 -1
h-7.5h-7.5h-6.5q-4 0 -7.5 0.5t-7.5 0.5q-21 0 -40.5 3t-37.5 7q-19 5 -34.5 14.5t-26.5 22.5q-10 12 -17 26.5t-9 30.5q-3 17 -3 34.5t4 35.5q0 5 1 9.5t2 9.5q0 2 0.5 4.5t1.5 5.5q1 2 1.5 4.5t1.5 4.5q0 2 0.5 3.5t1.5 3.5q0 1 0.5 3t0.5 3q0 2 1 3.5t2 3.5q0 1 1 3t1 3
q8 23 20 44.5t26 42.5q15 21 34 37.5t42 29.5q20 11 40 18t41 11q10 2 20.5 3t20.5 2t20.5 2t20.5 1h10.5h11.5h10.5h11.5h3h3h2.5h2.5h3h3h2.5h2.5l18 66h57l-18 -65h268l-34 -129h-268l-47 -173q2 0 3 -0.5t3 -0.5h2.5h2.5h6h6q57 0 106 -6.5t89 -18.5q41 -13 50.5 -57
t-12.5 -120q-1 -4 -2.5 -8t-2.5 -8t-2.5 -7.5t-2.5 -6.5q-9 -22 -20.5 -43t-25.5 -41t-32.5 -36.5t-40.5 -28.5q-21 -11 -42 -18.5t-42 -10.5t-41.5 -4.5t-40.5 -1.5h-11.5h-10.5h-11h-10h-8h-7h-7.5h-6.5l-19 -70h-57l19 70h-272l34 127v0v0zM453 417l47 173q-4 -1 -8 -1
h-8h-8h-8q-22 -1 -44 -5.5t-42 -12.5q-19 -8 -33.5 -26t-22.5 -46q-7 -27 -3.5 -44t19.5 -24q15 -7 33.5 -11t39.5 -4h6h7h3.5h3.5h3h3h3.5h2.5h3.5h2.5v1v0z" />
    <glyph glyph-name="percent" unicode="%" horiz-adv-x="921" 
d="M392 437q8 6 14.5 15t12.5 21q7 12 11.5 25t8.5 26q3 13 5 25.5t2 24.5q1 12 -1 21t-7 16q-4 6 -9.5 11t-13.5 8t-16.5 4.5t-17.5 1.5t-18 -1.5t-18 -4.5q-10 -3 -18 -8t-15 -11q-7 -7 -14.5 -16.5t-13.5 -21.5t-11 -24t-8 -25q-4 -13 -5.5 -25.5t-1.5 -24.5
q-1 -12 1 -21.5t6 -16.5t9.5 -12t13.5 -8t16 -4.5t17 -1.5t18 1.5t19 4.5q9 3 17.5 8t15.5 12l1 1v0zM232 335q-19 5 -34.5 14t-26.5 22q-10 14 -16 31t-7 38q0 10 1 20.5t2 21.5t3.5 22t5.5 22q2 5 3.5 10t3.5 11q1 5 3 10l4 10q1 2 2 4.5t2 5.5q4 7 7.5 14.5t7.5 14.5
q11 21 26.5 38.5t32.5 30.5q18 14 38.5 23t42.5 14q3 1 6 1t6 1l12 2l12 2q8 1 17 1.5t18 0.5q8 0 16.5 -0.5t17.5 -1.5q8 -1 16.5 -2.5t15.5 -3.5q20 -5 35 -14t25 -23q11 -13 16.5 -30.5t6.5 -38.5v-19.5t-2 -19.5q0 -5 -1 -10l-2 -10q-1 -6 -2 -11t-3 -10
q-3 -11 -6.5 -22t-7.5 -22t-9.5 -21.5t-11.5 -20.5q-11 -21 -26 -38t-33 -31q-18 -13 -37.5 -22.5t-42.5 -14.5q-8 -1 -16 -2.5t-16 -2.5q-9 -1 -17 -2t-16 -1q-10 0 -19.5 0.5t-18.5 1.5t-17.5 2.5t-16.5 3.5v1v0zM278 0l471 717h78l-471 -717h-78v0v0zM642 0
q-20 5 -35.5 14t-25.5 22t-16 30t-7 38q0 10 0.5 20.5t1.5 20.5q2 11 4 21.5t5 21.5t6.5 21.5t7.5 20.5q5 11 10 21l10 20q18 33 42.5 55.5t55.5 35.5t62 19t62 4q7 -1 14 -1.5t14 -1.5q3 -1 6 -1.5t7 -0.5q3 -1 6.5 -1.5t7.5 -1.5q20 -5 34.5 -14t25.5 -23
q11 -13 16.5 -30.5t6.5 -38.5q1 -10 0 -20t-3 -21q-1 -10 -3 -20.5t-5 -21.5t-6.5 -21.5t-8.5 -21.5q-4 -10 -8.5 -20.5t-10.5 -20.5q-12 -21 -27 -37.5t-33 -30.5q-18 -13 -37.5 -22t-41.5 -14q-10 -1 -19.5 -2t-18.5 -2q-10 -1 -19.5 -1.5t-18.5 -0.5q-8 0 -16 0.5
t-16 1.5q-4 1 -7.5 1.5t-7.5 0.5q-4 1 -7.5 1.5t-6.5 0.5v0v0zM802 102q8 6 14 15t12 21q7 12 11.5 25t8.5 26t5.5 25.5t2.5 24.5q0 12 -1.5 21t-6.5 16q-4 6 -9.5 10.5t-13.5 7.5q-4 2 -8 3l-8 2t-8 1.5t-8 0.5q-10 0 -19 -1.5t-18 -4.5q-10 -3 -18 -8t-16 -11
q-7 -7 -14 -16.5t-14 -21.5q-6 -12 -10.5 -24t-8.5 -25t-5.5 -25.5t-1.5 -24.5q-1 -12 1.5 -21.5t6.5 -16.5q3 -7 8.5 -12t13.5 -8t16.5 -4.5t17.5 -1.5h6t6 1q6 0 12 1.5t12 3.5q9 3 17.5 8t16.5 12v1v0z" />
    <glyph glyph-name="ampersand" unicode="&#x26;" horiz-adv-x="805" 
d="M765 295q-19 -36 -40.5 -70t-46.5 -67t-55.5 -60t-66.5 -50q-25 -15 -50.5 -25.5t-52.5 -18.5q-28 -6 -55 -10.5t-54 -5.5h-33.5t-32.5 2q-16 1 -32 4t-30 6q-28 5 -50 18t-39 32q-17 20 -24.5 45t-4.5 56q3 35 15.5 64t31.5 52q20 23 45 43.5t56 39.5q-10 9 -18.5 19
t-16.5 20q-8 11 -13.5 23.5t-7.5 27.5q-1 10 -2 20.5t0 21.5q0 11 2 22t6 23q0 4 1.5 8.5t2.5 8.5q2 5 3.5 9.5t3.5 8.5q18 42 45 71.5t62 47.5t73 27t77 9l242 1l-36 -133h-204q-23 -1 -45 -7.5t-43 -18.5q-21 -13 -32 -32.5t-13 -45.5q-1 -21 5.5 -34.5t20.5 -18.5
q14 -6 30 -8.5t34 -2.5h4.5h5.5h4.5h5.5h1.5h1.5h0.5h1.5h3.5h2.5l-32 -122q-1 -1 -2 -1h-1h-1.5h-0.5h-1.5h-1.5h-2h-2q-20 0 -39.5 -2t-37.5 -6q-19 -4 -34.5 -18.5t-26.5 -40.5q-8 -18 -9.5 -35t4.5 -32q6 -16 16.5 -26t26.5 -15q7 -2 14 -3.5t14 -1.5q4 0 8 -0.5t8 -0.5
h7h8q17 1 33.5 4.5t35.5 9.5q17 6 33.5 14.5t31.5 20.5q17 12 30.5 26.5t25.5 30.5q11 16 21.5 32.5t20.5 32.5v1.5t1 1.5l0.5 0.5t0.5 1.5t0.5 1.5t0.5 1.5h0.5h0.5q0 1 0.5 1.5l0.5 0.5l-100 1l33 123h348l-33 -123h-89v0v0z" />
    <glyph glyph-name="quotesingle" unicode="'" horiz-adv-x="198" 
d="M228 499l25 94h-56l34 125h120q-1 -6 -2.5 -10.5t-2.5 -9.5q-1 -4 -2.5 -8.5t-2.5 -9.5q-3 -10 -5.5 -20t-5.5 -20q-3 -9 -5.5 -17.5t-5.5 -16.5q-6 -16 -15 -31.5t-23 -30.5q-3 -3 -5.5 -6t-5.5 -5l-6 -6l-6 -6t-6.5 -6t-7.5 -5l-8 -6l-8 -6v1v0z" />
    <glyph glyph-name="parenleft" unicode="(" horiz-adv-x="347" 
d="M501 718q-11 -13 -21 -25.5t-20 -24.5l-18 -24t-17 -24q-28 -39 -52 -78t-44 -78q-19 -40 -35.5 -82.5t-28.5 -87.5q-12 -46 -19 -89.5t-8 -84.5q-2 -40 1.5 -80t11.5 -77q2 -5 3 -10.5t3 -11.5q1 -5 2.5 -10.5t2.5 -11.5q1 -4 2 -7.5t2 -7.5q2 -8 4 -15.5t4 -14.5
l-95 -1q-17 40 -30 78.5t-21 75.5q-2 13 -4 25.5t-4 25.5q-6 50 -2.5 100.5t16.5 101.5q13 54 36 108t57 109q34 54 79 109.5t100 110.5l95 1v0v0z" />
    <glyph glyph-name="parenright" unicode=")" horiz-adv-x="347" 
d="M231 718h94q26 -56 40.5 -111.5t19.5 -109.5q5 -55 -0.5 -109t-21.5 -108q-16 -51 -39.5 -101.5t-56.5 -100.5q-8 -13 -17 -25.5t-18 -25.5q-28 -37 -61.5 -75.5t-72.5 -77.5l-94 -1q5 7 9.5 12.5t9.5 10.5q4 6 9 11.5t9 11.5q9 11 17.5 22t15.5 22q29 37 53.5 77
t45.5 80q20 41 36.5 84.5t28.5 89.5q12 45 19 87.5t8 82.5q2 39 -1 78t-9 78l-6 24l-6 24q-1 6 -2.5 12t-3.5 13q0 2 -0.5 4t-1.5 4l-2 8l-2 8v1v0z" />
    <glyph glyph-name="asterisk" unicode="*" horiz-adv-x="500" 
d="M203 484l108 54l-79 53l60 72l79 -53l29 108h84l-29 -108l107 53l22 -72l-107 -53l78 -54l-60 -71l-79 53l-29 -108h-84l29 108l-107 -53l-22 71v0v0z" />
    <glyph glyph-name="plus" unicode="+" horiz-adv-x="833" 
d="M526 596h99l-67 -249h243l-26 -97h-243l-66 -250h-99l66 250h-243l26 97h243l67 249v0v0z" />
    <glyph glyph-name="comma" unicode="," horiz-adv-x="198" 
d="M70 -93l25 93h-56l33 125h120q-1 -6 -2.5 -11t-3.5 -10q0 -2 -0.5 -4.5t-1.5 -4.5t-1.5 -4t-0.5 -4q-5 -20 -10 -37.5t-10 -32.5t-13.5 -29t-19.5 -28l-6 -6t-6 -7q-3 -3 -6.5 -6t-6.5 -6q-7 -6 -16 -13l-18 -14v-1v0z" />
    <glyph glyph-name="hyphen" unicode="-" 
d="M114 333h336l-34 -125h-336l34 125v0v0z" />
    <glyph glyph-name="period" unicode="." horiz-adv-x="198" 
d="M72 125h120l-33 -125h-120l33 125v0v0z" />
    <glyph glyph-name="slash" unicode="/" horiz-adv-x="419" 
d="M-27 -91l569 818h76l-574 -818h-71v0v0z" />
    <glyph glyph-name="zero" unicode="0" horiz-adv-x="773" 
d="M575 163q17 14 33 34.5t30 47.5t25.5 55t18.5 57q8 29 11.5 56.5t4.5 54.5q0 27 -4.5 48t-14.5 36q-9 14 -22.5 24.5t-30.5 17.5q-18 7 -38 10t-41 3t-42 -3.5t-43 -10.5q-21 -7 -40 -17t-35 -24q-17 -15 -33 -36t-30 -48t-24.5 -54.5t-18.5 -56.5q-7 -29 -11.5 -57
t-5.5 -55q0 -27 4.5 -47.5t14.5 -35.5q9 -14 22.5 -24.5t31.5 -17.5q17 -7 36.5 -10t40.5 -3t42 3.5t43 10.5q21 7 40.5 17.5t35.5 23.5v1v0zM259 4q-39 10 -68 26.5t-48 40.5q-19 23 -30 55.5t-12 73.5q0 18 1 37t3 39t7 40.5t10 41.5q6 20 12.5 40.5t14.5 40.5t17 39
t19 37q23 40 51 72t60 56t70.5 41.5t81.5 27.5q17 4 34.5 7t34.5 4q17 2 34.5 3t35.5 1q8 0 15.5 -0.5t15.5 -0.5q7 -1 15 -1.5t15 -1.5t14.5 -2.5t14.5 -2.5q7 -2 14.5 -3t14.5 -3q38 -10 66.5 -27.5t48.5 -41.5q19 -24 29.5 -56t11.5 -72q1 -18 -0.5 -37t-3.5 -39
q-3 -20 -7 -40.5t-10 -40.5q-5 -21 -12 -41.5t-15 -40.5t-16.5 -39t-19.5 -37q-22 -40 -50 -72.5t-60 -56.5q-33 -24 -70.5 -41t-81.5 -27l-16 -2l-16 -2l-16 -2l-16 -2q-16 -2 -32 -3t-31 -2q-18 0 -35 1t-33 3q-16 1 -32 3.5t-31 5.5l1 1v0z" />
    <glyph glyph-name="one" unicode="1" horiz-adv-x="264" 
d="M245 718h158l-192 -718h-158l192 718v0v0z" />
    <glyph glyph-name="two" unicode="2" horiz-adv-x="681" 
d="M85 216q8 29 19 54.5t24 47.5q14 23 37 42t54 35q21 10 42 16t43 9t43.5 4.5t43.5 1.5h6h6h5h6h12h12q7 0 14 -0.5t14 -0.5h7h7h21.5t21.5 1q21 1 39 8t32 20q14 14 22.5 31t12.5 39q4 25 -2.5 40t-22.5 19q-17 5 -35.5 7.5t-38.5 2.5l-343 1l33 124h376q2 -1 4.5 -1h5.5
h6h6h4.5h5.5h4.5h5.5q8 0 15.5 -0.5t15.5 -0.5q8 -1 15.5 -1.5t15.5 -1.5q15 -2 28.5 -7t25.5 -13q20 -13 31.5 -30.5t15.5 -40.5q5 -22 4.5 -46t-5.5 -48q-1 -1 -1 -2v-2v-0.5v-0.5l-1 -1v0q-12 -55 -36 -96.5t-59 -70.5q-36 -29 -81 -43.5t-100 -14.5l-136 1
q-45 -1 -73.5 -11.5t-41.5 -30.5t-23.5 -47.5t-18.5 -62.5q0 -1 -0.5 -2.5t-1.5 -3.5q-1 -1 -1.5 -2.5t-0.5 -3.5q-1 -3 -1.5 -6t-1.5 -6l466 1l-32 -123h-628l57 216v0v0z" />
    <glyph glyph-name="three" unicode="3" horiz-adv-x="632" 
d="M45 123h296q23 -1 44.5 3t40.5 12q20 8 34.5 26t21.5 46q7 26 2.5 43.5t-19.5 26.5q-16 9 -35 13.5t-42 4.5l-238 1l33 123h235q22 -1 43.5 3t41.5 12t33.5 25.5t20.5 44.5q8 27 3.5 45t-20.5 26t-34.5 12t-41.5 4l-292 1l33 123h345q38 -1 71.5 -7t61.5 -17
q29 -11 44 -37.5t16 -67.5q1 -39 -8.5 -71.5t-29.5 -59.5t-48 -51.5t-63 -47.5q13 -10 24 -20.5t20 -22.5t13 -27.5t5 -34.5q0 -8 -0.5 -16.5t-1.5 -16.5t-3.5 -16.5t-4.5 -16.5q-2 -7 -4.5 -14t-5.5 -14l-6 -14t-6 -13q-19 -37 -47 -63.5t-63 -40.5q-35 -15 -70.5 -22
t-70.5 -7h-360l32 123v0v0z" />
    <glyph glyph-name="four" unicode="4" horiz-adv-x="773" 
d="M528 131h-462l37 139l542 449h191l-124 -465h98l-33 -123h-98l-35 -131h-151l35 131v0v0zM644 565l-373 -311h290l83 311v0v0z" />
    <glyph glyph-name="five" unicode="5" horiz-adv-x="685" 
d="M64 123h348q23 -1 44 3.5t39 13.5q17 9 30 27t20 45q8 27 4.5 45t-15.5 27q-13 9 -31.5 13.5t-42.5 4.5l-347 1l111 415h597l-33 -123h-438l-45 -169h257q50 -1 86 -15t58 -41t26 -66.5t-10 -91.5q-16 -60 -45.5 -101.5t-70.5 -64.5q-42 -23 -90 -34.5t-102 -11.5h-382
l32 123v0v0z" />
    <glyph glyph-name="six" unicode="6" horiz-adv-x="727" 
d="M571 415q54 -1 96.5 -12t73.5 -34q30 -22 35.5 -65t-14.5 -106q-18 -55 -51 -93.5t-81 -61.5q-48 -22 -97 -34.5t-99 -15.5q-19 -2 -38 -2t-38 2q-19 1 -36 3t-33 4q-78 11 -123 45.5t-57 91.5q-11 57 -4 123.5t33 141.5q31 89 76 150.5t104 95.5q59 35 131 52t156 17
l256 1l-33 -123h-260q-52 -1 -92.5 -10.5t-69.5 -28.5q-28 -19 -51.5 -54.5t-40.5 -87.5l257 1v0v0zM529 292h-247q-1 -3 -1.5 -6t-1.5 -5q0 -1 -0.5 -2.5t-0.5 -2.5q0 -2 -0.5 -3t-0.5 -2q-4 -20 -4.5 -39.5t0.5 -37.5q2 -19 12 -33t26 -25q10 -6 21.5 -11t25.5 -8t28 -5
t29 -2q13 -1 26 0l26 2q4 1 8 1.5t8 0.5q8 2 16.5 4t15.5 4q15 4 27.5 12t23.5 20t18.5 25t10.5 26q5 16 4 31t-8 28q-7 14 -23 20.5t-40 6.5l1 1v0z" />
    <glyph glyph-name="seven" unicode="7" horiz-adv-x="635" 
d="M619 595h-460l33 123h636l-33 -123l-590 -595h-192l606 595v0v0z" />
    <glyph glyph-name="eight" unicode="8" horiz-adv-x="737" 
d="M473 595q-22 -1 -44 -5t-42 -12t-33.5 -26t-21.5 -45q-7 -27 -2.5 -44.5t20.5 -25.5t35 -12t41 -4l110 1q22 -1 43.5 3t41.5 12t33.5 25.5t20.5 44.5q8 27 3.5 45t-20.5 26t-34.5 12t-41.5 4l-109 1v0v0zM393 299q-24 -1 -45.5 -5.5t-41.5 -13.5q-21 -9 -34.5 -26.5
t-19.5 -43.5q-8 -28 -4.5 -46t19.5 -26q17 -8 36 -12t42 -4l110 1q23 -1 44.5 3t40.5 12q20 8 34.5 26t21.5 46q7 26 2.5 43.5t-19.5 26.5q-16 9 -35 13.5t-42 4.5l-109 1v0v0zM226 360q-23 22 -37.5 46.5t-20.5 52.5q-5 27 3 60t28 70q23 41 51.5 67.5t63.5 37.5t72 16.5
t76 6.5l194 1q37 -1 70.5 -7t63.5 -17t45 -37.5t15 -67.5q0 -3 -0.5 -6.5t-0.5 -6.5q0 -4 -0.5 -7t-0.5 -6t-0.5 -6t-1.5 -6q0 -4 -0.5 -7t-1.5 -6q-3 -11 -7 -22t-9 -22q-5 -10 -11 -20.5t-12 -20.5q-10 -15 -21.5 -28t-25.5 -24q-13 -11 -27.5 -21.5t-29.5 -20.5
q14 -9 26.5 -19.5t21.5 -22.5q10 -12 15 -27.5t6 -35.5q-1 -7 -1.5 -14.5t-0.5 -15.5q-1 -7 -3 -14.5t-4 -15.5q-1 -8 -4 -16l-6 -16q-3 -7 -6 -14.5t-7 -14.5q-21 -38 -48.5 -64.5t-62.5 -40.5q-34 -14 -69 -21t-71 -7h-238q-37 0 -69 7t-59 21t-40.5 40.5t-13.5 64.5
q0 7 0.5 14.5t1.5 14.5l2 8l2 8q0 4 1 8l2 8q2 8 4.5 15.5t6.5 14.5q3 8 7 15.5t8 14.5q11 20 23.5 35.5t28.5 27.5q15 11 33 21.5t39 20.5v1v0z" />
    <glyph glyph-name="nine" unicode="9" horiz-adv-x="727" 
d="M347 303q-55 -1 -98 10.5t-74 33.5q-30 23 -35 65t15 105q18 55 50.5 94t80.5 61q47 23 95.5 36t99.5 17q10 1 19.5 1.5t19.5 0.5q9 0 18.5 -0.5t19.5 -1.5q19 -1 36.5 -3t33.5 -4q77 -13 122 -48t56 -92q12 -58 5 -124t-33 -140q-31 -88 -76 -149t-104 -96
q-59 -34 -130.5 -51.5t-154.5 -17.5h-257l32 123h261q50 -1 89.5 8.5t69.5 29.5q29 20 52.5 55.5t41.5 85.5l-255 1v0v0zM388 425h247q0 1 0.5 2t0.5 3q0 1 0.5 2.5t0.5 2.5q0 2 0.5 3.5t0.5 2.5q0 2 0.5 3.5t0.5 2.5q3 20 4 39t-1 37t-11 32.5t-25 24.5q-9 5 -20.5 9.5
t-25.5 7.5q-13 3 -27.5 4.5t-29.5 2.5h-26.5t-26.5 -2q-14 -1 -25.5 -3t-22.5 -5q-16 -4 -28.5 -12.5t-23.5 -20.5q-10 -12 -18 -24t-12 -26q-4 -16 -3 -31t8 -29q8 -13 23.5 -20t39.5 -7v1v0z" />
    <glyph glyph-name="colon" unicode=":" horiz-adv-x="212" 
d="M151 393h119l-34 -125h-119l34 125v0v0zM79 125h119l-33 -125h-119l33 125v0v0z" />
    <glyph glyph-name="semicolon" unicode=";" horiz-adv-x="212" 
d="M76 -93l25 93h-55l33 125h119q-1 -6 -2.5 -11.5t-3.5 -10.5q-1 -4 -2 -8.5t-2 -9.5q-5 -19 -10 -36t-10 -31q-2 -7 -5 -13.5t-7 -13.5q-3 -6 -8 -13l-10 -14q-6 -7 -12.5 -13.5t-14.5 -13.5q-7 -7 -16 -14.5t-19 -14.5v-1v0zM151 393h119l-34 -125h-119l34 125v0v0z" />
    <glyph glyph-name="less" unicode="&#x3c;" horiz-adv-x="833" 
d="M860 583l-29 -107l-484 -178l389 -178l-29 -107l-512 237l26 97l639 236v0v0z" />
    <glyph glyph-name="equal" unicode="=" horiz-adv-x="833" 
d="M245 452h585l-26 -97h-585l26 97v0v0zM188 242h585l-26 -97h-585l26 97v0v0z" />
    <glyph glyph-name="greater" unicode="&#x3e;" horiz-adv-x="833" 
d="M285 583l511 -236l-26 -97l-638 -237l29 107l484 178l-389 178l29 107v0v0z" />
    <glyph glyph-name="question" unicode="?" horiz-adv-x="693" 
d="M256 195l-5 -18h-164q8 29 18 58t23 57q12 28 34.5 51.5t54.5 42.5q21 12 42.5 19.5t43.5 11.5q8 1 15 2t15 2q15 2 30 3.5t30 1.5h6.5h6.5q3 -1 6.5 -1h6.5h14h14q4 0 8 -0.5t8 -0.5h7h8h8h8h7h8q23 0 42.5 5.5t36.5 15.5q16 10 27 27.5t16 42.5q6 27 1 43.5t-21 22.5
t-35 9t-42 3l-350 1l33 124h384q1 0 2 -0.5t2 -0.5h1h2h4h4h12h12h6h6q3 -1 6.5 -1h6.5q13 -1 25.5 -2.5t24.5 -3.5q12 -3 23 -7t21 -10q20 -12 31.5 -29t15.5 -40q4 -22 3.5 -45t-5.5 -47v-2.5t-1 -3.5v-1.5v-0.5q0 -1 -0.5 -1.5t-0.5 -1.5q-12 -54 -36 -95.5t-59 -70.5
q-36 -30 -81 -44.5t-100 -14.5l-126 1q-28 -1 -51 -6t-41 -16q-19 -10 -32 -30.5t-21 -50.5l1 1v0zM75 127h163l-34 -127h-163l34 127v0v0z" />
    <glyph glyph-name="at" unicode="@" horiz-adv-x="1000" 
d="M685 342q3 25 -2 42t-19 27t-31.5 11.5t-37.5 -4.5q-17 -5 -35 -15.5t-36 -27.5q-19 -16 -35.5 -38.5t-30.5 -49.5q-27 -50 -34 -84.5t6 -53.5t32 -24.5t44 1.5q17 5 33.5 14t33.5 23t31 32t26 40l55 107v0v0zM605 133q-18 -19 -37 -33.5t-39 -25.5q-19 -10 -41.5 -16
t-45.5 -6q-44 -1 -72.5 12t-41.5 39t-12 60t15 77q16 45 43 86.5t64 79.5q38 38 81.5 59.5t92.5 25.5q23 2 42.5 0t33.5 -10q15 -7 26 -20t18 -32l40 49h87l-151 -292q-12 -22 -11 -35.5t15 -17.5t31.5 -1t38.5 13q8 3 16.5 7.5t16.5 9.5t16.5 11t15.5 13q22 18 39.5 39
t33.5 45q15 24 26 48t18 49q2 8 3.5 15t2.5 15q1 7 2 14.5t2 14.5q1 15 -0.5 29.5t-3.5 27.5q-8 38 -27.5 66t-50.5 47t-66 30t-74 14h-4h-4h-2t-1 1h-2h-2q-97 5 -181 -21.5t-155 -82.5q-70 -57 -118 -119.5t-73 -131.5q-14 -40 -19.5 -78t-1.5 -76q3 -37 17.5 -68
t39.5 -57q23 -22 52 -37.5t62 -25.5q34 -10 69.5 -14.5t73.5 -2.5q37 2 75.5 9t77.5 19t76.5 28t71.5 35l26 -55q-29 -16 -58.5 -31.5t-60.5 -28.5q-15 -7 -30.5 -12.5t-30.5 -10.5t-30.5 -9t-30.5 -7q-19 -4 -37 -7t-36 -4q-12 -1 -24 -1.5t-24 -0.5h-12h-12q-46 1 -89 9.5
t-83 25.5q-40 16 -72 40.5t-55 57.5q-22 28 -34 61t-14 71q-3 38 2 77.5t18 79.5q11 36 27.5 72t39.5 71q22 35 48.5 67t57.5 60q53 48 111 83.5t122 57.5q63 22 124.5 31t122.5 6q4 0 8 -0.5t8 -1.5h4h4t4 -0.5t4 -0.5q4 -1 8.5 -1t7.5 -1q55 -8 101.5 -30.5t85.5 -58.5
q38 -37 53.5 -85.5t9.5 -108.5q-1 -4 -1.5 -7.5t-1.5 -6.5q-1 -4 -1.5 -7.5t-0.5 -7.5q0 -2 -0.5 -4.5t-1.5 -5.5v-2t-1 -2q0 -4 -1 -7.5t-2 -7.5q-11 -42 -31.5 -82.5t-49.5 -79.5q-30 -39 -66.5 -70t-79.5 -54q-13 -7 -27 -13.5t-30 -11.5q-11 -3 -21.5 -6t-20.5 -4
q-5 -1 -10.5 -1.5t-10.5 -1.5q-3 0 -6 -0.5t-5 -0.5q-9 -1 -17.5 -1t-15.5 1q-11 2 -20.5 5t-17.5 7q-10 5 -15.5 12.5t-7.5 16.5t-2 19t2 22v1v0z" />
    <glyph glyph-name="A" unicode="A" horiz-adv-x="722" 
d="M472 718h160l114 -718h-168l-21 171h-312l-109 -171h-159l495 718v0v0zM508 575l-179 -276h214l-35 276v0v0z" />
    <glyph glyph-name="B" unicode="B" horiz-adv-x="755" 
d="M469 0h-395l192 718h369q5 -1 9.5 -1h8.5h4h5q2 -1 4 -1h4q37 -1 69.5 -8.5t61.5 -19.5q29 -13 42.5 -40.5t12.5 -69.5q-2 -39 -13 -71.5t-31 -58.5q-21 -26 -49.5 -48.5t-66.5 -41.5q32 -17 50 -39t23 -49t-2.5 -60.5t-26.5 -73.5q-20 -41 -48 -68t-63 -41
q-35 -13 -70.5 -20t-71.5 -7h-5.5h-4.5h-4h-4v0v0zM482 127q21 -1 40 3t35 13t27.5 26t18.5 41q6 24 3.5 41t-13.5 26t-27.5 13.5t-38.5 4.5l-223 1l-45 -169h223v0v0zM382 589l-44 -166h221q21 -1 40 3t35 13t27.5 25.5t18.5 40.5q6 23 3.5 39.5t-14.5 25.5q-13 9 -29 13.5
t-37 4.5l-221 1v0v0z" />
    <glyph glyph-name="C" unicode="C" horiz-adv-x="655" 
d="M529 595q-55 -1 -95 -19t-65 -53q-26 -36 -46 -77t-34 -88l-2 -8l-2 -8q-1 -5 -2 -9l-2 -8q-2 -8 -4 -16.5t-4 -16.5q-4 -18 -5.5 -35t-0.5 -34q0 -16 4.5 -31t12.5 -28q9 -13 20 -22t26 -12t31.5 -4.5t32.5 -1.5h2h2h1.5h1.5h0.5h1.5l248 1l-33 -125h-255q-31 0 -60 2.5
t-56 8.5q-27 5 -49.5 18t-42.5 33q-23 24 -36.5 54t-15.5 65t0.5 71.5t12.5 73.5q1 4 1.5 8t1.5 8q1 3 2 7l2 8t2.5 7.5t2.5 7.5t2.5 7.5t2.5 7.5q28 85 68 147.5t91 102.5t118 60t149 20l251 1l-33 -123h-248v0v0z" />
    <glyph glyph-name="D" unicode="D" horiz-adv-x="771" 
d="M266 718h329q82 -1 137.5 -21t85.5 -60t36 -102.5t-11 -147.5q-1 -7 -3 -14.5t-4 -15.5l-2 -8t-2 -7l-2 -8l-2 -8q-12 -37 -27.5 -73.5t-37.5 -71.5t-50.5 -65t-65.5 -54q-30 -20 -60 -33t-60 -18q-10 -2 -20 -3.5t-20 -2.5q-20 -3 -39.5 -4t-40.5 -1h-333l192 718v0v0z
M558 593h-175l-125 -468h175q1 -1 2 -1h2h1.5h1.5h0.5h1.5q8 0 16 0.5t17 1.5q8 0 16 1.5t16 2.5l8 2t9 2q12 5 24.5 12.5t23.5 17.5q16 14 28.5 29.5t21.5 33.5q9 17 17.5 35t14.5 36q1 3 1.5 5t1.5 5q2 5 3.5 10t2.5 10q2 8 4.5 15.5t3.5 14.5q2 8 4.5 15.5t4.5 15.5
t4 16.5t3 16.5q3 17 4.5 34.5t1.5 34.5t-4.5 32t-12.5 28q-8 14 -20 22t-27 12q-15 3 -30 5t-32 2h-1.5h-0.5h-1.5h-1.5h-2h-2v1v0z" />
    <glyph glyph-name="E" unicode="E" horiz-adv-x="676" 
d="M528 593q-42 -1 -76 -12t-60 -33t-45.5 -52.5t-33.5 -70.5l419 1l-34 -125h-419q-5 -19 -8 -37.5t-3 -35.5q-1 -18 3.5 -34t13.5 -30q8 -13 19 -22t26 -12t31.5 -4.5t32.5 -1.5h2h2h1.5h1.5h0.5h1.5l248 1l-33 -125h-255q-31 0 -60 2.5t-56 8.5q-27 5 -49.5 18t-42.5 33
q-23 24 -36.5 54t-15.5 65t0.5 71.5t12.5 73.5q1 4 1.5 8t1.5 8q1 3 2 7l2 8t2.5 7.5t2.5 7.5t2.5 7.5t2.5 7.5q28 85 68 147.5t91 102.5t118 60t149 20l251 1l-34 -125h-248v0v0z" />
    <glyph glyph-name="F" unicode="F" horiz-adv-x="678" 
d="M157 330q28 104 63.5 178t81.5 119q45 45 123 67.5t189 22.5l230 1l-34 -125h-243q-48 -1 -85.5 -11t-65.5 -30q-28 -19 -49 -53t-36 -82l433 1l-34 -124h-432l-78 -294h-151l88 330v0v0z" />
    <glyph glyph-name="G" unicode="G" horiz-adv-x="742" 
d="M415 299l34 127h357l-114 -426h-325q-31 0 -61 2.5t-57 7.5q-28 5 -51 18t-43 34q-23 24 -36.5 54t-15.5 65t0.5 71.5t12.5 73.5q1 4 1.5 8t1.5 8q1 3 2 7l2 8t2.5 7.5t2.5 7.5t2.5 7.5t2.5 7.5q28 85 68 147.5t91 102.5t118 60t149 20l325 1l-33 -124h-325
q-55 -1 -94.5 -19.5t-65.5 -56.5q-25 -37 -44 -78t-30 -85q-1 -1 -1 -1.5v-0.5v0v0v-1v0q-13 -46 -15.5 -85t4.5 -72t37 -49.5t84 -16.5l170 1l46 169h-202v0v0z" />
    <glyph glyph-name="H" unicode="H" horiz-adv-x="727" 
d="M417 718l-78 -291h277l78 291h151l-192 -718h-151l80 300h-277l-80 -300h-151l192 718h151v0v0z" />
    <glyph glyph-name="I" unicode="I" horiz-adv-x="308" 
d="M233 0h-158l192 718h158l-192 -718v0v0z" />
    <glyph glyph-name="J" unicode="J" horiz-adv-x="558" 
d="M28 119h177q56 -1 94.5 12.5t58.5 40.5t36.5 64.5t29.5 86.5l106 395h157l-115 -427l-2 -6t-1 -6q-1 -3 -2 -5.5t-2 -5.5t-1.5 -5.5t-0.5 -4.5q-1 -3 -1.5 -5.5t-1.5 -5.5q-8 -24 -18.5 -46.5t-23.5 -45.5q-13 -22 -30 -42.5t-38 -38.5q-29 -25 -59.5 -41t-62.5 -22
q-16 -3 -31.5 -5t-30.5 -3q-15 -2 -30.5 -2.5t-31.5 -0.5h-2.5h-3.5h-2h-2h-197l31 119v0v0z" />
    <glyph glyph-name="K" unicode="K" horiz-adv-x="671" 
d="M266 718h151l-93 -345l376 345h181l-382 -351l193 -367h-193l-179 357l-95 -357h-151l192 718v0v0z" />
    <glyph glyph-name="L" unicode="L" horiz-adv-x="556" 
d="M359 0q-34 0 -65.5 2.5t-60.5 7.5q-28 5 -51 21t-41 43q-16 23 -22.5 48t-4.5 53t7 56.5t13 58.5l115 428h151l-106 -394q-14 -50 -18.5 -88.5t-0.5 -64.5q5 -27 36.5 -40t91.5 -13l178 1l-31 -119h-191v0v0z" />
    <glyph glyph-name="M" unicode="M" horiz-adv-x="957" 
d="M266 718h222l35 -551l331 551h221l-192 -718h-148l161 559l-333 -559h-160l-39 565l-136 -565h-154l192 718v0v0z" />
    <glyph glyph-name="N" unicode="N" horiz-adv-x="778" 
d="M266 718h191l156 -516l131 516h154l-192 -718h-175l-164 543l-138 -543h-155l192 718v0v0z" />
    <glyph glyph-name="O" unicode="O" horiz-adv-x="773" 
d="M329 467q-4 -7 -7.5 -14l-6.5 -13q-3 -7 -5.5 -14t-5.5 -14q-5 -13 -9.5 -26.5t-8.5 -27.5t-7 -28t-5 -28q-1 -13 -2 -26.5t-2 -26.5q-1 -23 3 -43t12 -37t22.5 -29.5t35.5 -20.5q8 -3 16.5 -5t17.5 -4q8 -1 17.5 -2t19.5 -1q9 0 19 1l20 2q5 1 9.5 2t9.5 2t9.5 2.5
t9.5 2.5q25 8 46.5 20.5t39.5 29.5q17 17 31.5 37t25.5 43q7 13 13 26.5t10 26.5l10 28t9 28t6.5 27.5t4.5 26.5q2 14 3.5 27.5t1.5 26.5q1 23 -2.5 43t-11.5 37q-9 17 -23.5 30t-35.5 20q-8 3 -16.5 5.5t-16.5 3.5q-10 2 -19.5 2.5t-18.5 0.5q-10 0 -19.5 -0.5t-18.5 -2.5
q-10 -1 -20 -3.5t-19 -5.5q-25 -8 -46 -20.5t-38 -29.5t-32 -37t-27 -43l1 1v0zM186 518q23 39 51 71t60 57t70 43t82 28l32 6t33 5q16 2 32.5 3t32.5 1q17 0 33.5 -0.5t34.5 -2.5q17 -2 32.5 -5t30.5 -8q38 -10 66 -27.5t47 -42.5q18 -25 28.5 -57.5t11.5 -71.5
q0 -18 -1.5 -37t-3.5 -39q-3 -20 -7 -40t-9 -40q-6 -22 -12.5 -43t-14.5 -41q-9 -21 -18 -40.5t-19 -37.5q-23 -40 -51 -73t-60 -58q-33 -25 -71 -42t-81 -26q-18 -3 -35 -6t-34 -4q-18 -2 -36 -3t-35 -1q-16 0 -31 1t-29 3q-16 2 -30 5t-28 5q-38 9 -67 26t-48 42t-29.5 58
t-11.5 73q-1 17 0.5 36t3.5 40q2 20 7 41l10 42q3 11 6 21t7 21q3 10 7 20.5t8 20.5q8 21 17 40t19 36v1v0z" />
    <glyph glyph-name="P" unicode="P" horiz-adv-x="742" 
d="M558 590h-175l-57 -212h184q27 0 52.5 5.5t47.5 15.5q23 11 39 32t24 52q10 35 5 56.5t-25 30.5t-43.5 14t-52.5 5l1 1v0zM266 718h328q0 -1 0.5 -1h1.5h1.5h1.5h18.5h19.5q9 0 18 -0.5t19 -1.5q17 -1 33 -3.5t31 -6.5q16 -4 30 -10t27 -14q22 -16 35 -37t17 -48
q5 -27 3 -55.5t-9 -57.5q-7 -27 -18.5 -53t-28.5 -51q-16 -25 -37.5 -45.5t-48.5 -37.5q-8 -4 -15.5 -8t-15.5 -8q-15 -7 -30.5 -12t-31.5 -8q-23 -4 -46.5 -6.5t-46.5 -3.5h-12h-12h-12h-12l-182 1l-67 -251h-151l192 718v0v0z" />
    <glyph glyph-name="Q" unicode="Q" horiz-adv-x="773" 
d="M571 164q18 14 33.5 34.5t28.5 47.5q14 27 25 55t18 57q8 29 12 56.5t4 54.5q1 27 -3.5 48t-12.5 36q-10 14 -22.5 24.5t-29.5 17.5q-18 7 -36 10.5t-38 3.5q-21 0 -42 -3.5t-41 -10.5q-22 -7 -40.5 -17.5t-33.5 -24.5q-18 -15 -33.5 -36t-29.5 -48q-13 -27 -24 -54.5
t-19 -56.5q-7 -29 -11.5 -57t-5.5 -55t4 -47.5t14 -35.5q8 -14 21 -24.5t31 -18.5q17 -7 35.5 -10.5t39.5 -3.5q20 0 40 3.5t42 10.5q20 8 39 18.5t35 24.5v1v0zM592 25q-14 -6 -27.5 -10.5t-25.5 -7.5q-12 -4 -24 -6t-23 -4q-16 -3 -31.5 -5.5t-32.5 -3.5q-16 -1 -33 -1
t-37 1h-6h-5q-3 1 -5.5 1h-5.5q-5 1 -10.5 1.5t-10.5 0.5q-31 4 -60 11t-56 19t-46 32t-32 47q-10 24 -15 54.5t-4 67.5q1 36 6.5 73.5t17.5 76.5q14 50 36 96.5t53 91.5q29 44 67 76.5t82 51.5q24 11 48.5 18.5t49.5 12.5q26 5 50.5 8t48.5 4h28t28 -1t27 -2.5t26 -3.5
q41 -7 74 -21t57 -35q25 -21 40 -52t19 -72q2 -19 2 -40.5t-3 -44.5q-1 -11 -2.5 -22.5t-3.5 -22.5q-2 -12 -4 -23.5t-5 -22.5q-6 -22 -13 -44.5t-15 -43.5q-9 -22 -18 -42t-20 -39q-7 -13 -15 -25t-16 -23l-18 -22t-19 -22l81 -107h-181l-18 25v0v0z" />
    <glyph glyph-name="R" unicode="R" horiz-adv-x="750" 
d="M266 718h372q5 -1 10.5 -1h10.5h3.5h3.5h1.5h1.5q3 -1 5.5 -1h5.5q20 -1 39.5 -4.5t37.5 -8.5q18 -6 33 -16t26 -25q10 -13 16 -28.5t8 -32.5q2 -18 1.5 -36t-4.5 -36q-1 -4 -1.5 -7.5t-2.5 -6.5q0 -2 -0.5 -4t-0.5 -3q0 -2 -0.5 -3.5t-0.5 -3.5q-10 -37 -27 -70t-43 -60
q-25 -27 -57 -45t-72 -27l99 -299h-170l-83 282h-178l-75 -282h-151l192 718v0v0zM568 590h-185l-49 -181h185q1 -1 2 -1h2h2h2q24 0 46.5 3.5t44.5 10.5q21 8 36 27t23 50q8 32 3 51t-24 26q-19 6 -41 9.5t-48 3.5l1 1v0z" />
    <glyph glyph-name="S" unicode="S" horiz-adv-x="755" 
d="M839 590h-373q-25 -1 -47.5 -6t-41.5 -15t-32 -28.5t-21 -45.5q-5 -21 -2.5 -36t14.5 -24t27.5 -13.5t34.5 -4.5l201 1q5 -1 10.5 -1h11.5h6h6q3 -1 6 -1h6q17 -1 33.5 -4t32.5 -8q15 -4 28 -13t23 -21q9 -11 14.5 -24.5t6.5 -28.5q2 -16 1.5 -31.5t-3.5 -32.5
q-1 -3 -1.5 -5.5t-0.5 -4.5q0 -3 -0.5 -5.5t-1.5 -4.5t-1.5 -4.5t-0.5 -4.5q-1 -3 -1.5 -5.5t-0.5 -4.5q-19 -63 -47.5 -105t-67.5 -65q-40 -22 -88 -33t-105 -11h-402l34 128h378q25 -1 47.5 3t42.5 13q20 8 33 27.5t18 49.5q3 23 -1.5 37.5t-18.5 20.5q-13 5 -30.5 8
t-37.5 4l-177 1q-56 -1 -97 10.5t-67 33.5q-26 23 -31 64t12 101q17 62 45.5 105t68.5 65q40 23 89 34.5t107 11.5l395 1l-34 -128v0v0z" />
    <glyph glyph-name="T" unicode="T" horiz-adv-x="619" 
d="M389 592h-231l34 125h620l-34 -125h-233l-158 -592h-156l158 592v0v0z" />
    <glyph glyph-name="U" unicode="U" horiz-adv-x="768" 
d="M414 718l-115 -430q-13 -46 -14 -79.5t9 -56.5q10 -22 39.5 -33.5t78.5 -11.5t84 11.5t57 33.5q22 23 39 56.5t29 78.5l116 431h151l-116 -434q-2 -7 -3.5 -13.5t-3.5 -12.5q-2 -7 -4 -13l-4 -12q-6 -19 -13.5 -38t-16.5 -37q-10 -18 -22 -35t-27 -33q-22 -22 -47 -38
t-54 -27q-19 -7 -37.5 -12.5t-36.5 -8.5q-9 -2 -18.5 -3t-18.5 -2q-11 -2 -21.5 -2.5t-21.5 -1.5h-10.5t-10.5 -1h-10h-10h-10h-10q-5 1 -10 1h-10q-10 1 -20 1.5t-20 2.5q-27 1 -51.5 8t-47.5 17q-22 11 -38.5 27.5t-27.5 38.5q-8 16 -11 33t-2 35q0 18 3 37t8 38
q1 6 2.5 12t3.5 13q1 3 1.5 6t1.5 7q1 3 1.5 6t1.5 6l117 435h150v0v0z" />
    <glyph glyph-name="V" unicode="V" horiz-adv-x="701" 
d="M281 0l-120 718h170l73 -535l364 535h161l-492 -718h-156v0v0z" />
    <glyph glyph-name="W" unicode="W" horiz-adv-x="1106" 
d="M186 718h161l18 -552l288 552h178l13 -552l303 552h155l-414 -718h-185l-10 536l-277 -536h-184l-46 718v0v0z" />
    <glyph glyph-name="X" unicode="X" horiz-adv-x="646" 
d="M332 359l-146 359h176l87 -227l208 227h174l-325 -349l150 -369h-181l-85 250l-226 -250h-178l346 359v0v0z" />
    <glyph glyph-name="Y" unicode="Y" horiz-adv-x="620" 
d="M152 718h169l103 -274l254 274h175l-385 -401l-84 -317h-151l84 317l-165 401v0v0z" />
    <glyph glyph-name="Z" unicode="Z" horiz-adv-x="734" 
d="M821 590l-528 -463h404l-34 -127h-606l34 127l534 463h-410l34 128h606l-34 -128v0v0z" />
    <glyph glyph-name="bracketleft" unicode="[" horiz-adv-x="347" 
d="M269 718h245l-30 -112h-124l-167 -621h124l-30 -112h-245l227 845v0v0z" />
    <glyph glyph-name="backslash" unicode="\" horiz-adv-x="419" 
d="M190 727h75l134 -818h-74l-135 818v0v0z" />
    <glyph glyph-name="bracketright" unicode="]" horiz-adv-x="347" 
d="M462 718l-227 -845h-244l29 112h125l167 621h-125l30 112h245v0v0z" />
    <glyph glyph-name="asciicircum" unicode="^" horiz-adv-x="1000" 
d="M629 713h123l161 -274h-115l-132 181l-231 -181h-115l309 274v0v0z" />
    <glyph glyph-name="underscore" unicode="_" horiz-adv-x="500" 
d="M-36 -135h499l-26 -100h-499l26 100v0v0z" />
    <glyph glyph-name="grave" unicode="`" horiz-adv-x="198" 
d="M231 718h119l-34 -125h-55l-25 -94q-6 5 -10.5 10.5t-7.5 11.5q-2 3 -3.5 6t-3.5 6q-1 2 -2 5l-2 6q-5 15 -6.5 30.5t1.5 31.5t7.5 34.5t11.5 39.5q1 5 2.5 9.5t2.5 8.5q1 5 2.5 9.5t2.5 9.5v1v0z" />
    <glyph glyph-name="a" unicode="a" horiz-adv-x="635" 
d="M212 527h285q22 -1 43.5 -3.5t41.5 -7.5q20 -4 36 -15t29 -28q11 -14 16.5 -30.5t6.5 -35.5t-1.5 -38.5t-7.5 -39.5l-88 -329h-374q-40 0 -69 11t-44 33q-16 23 -17 53.5t12 70.5q15 47 40 78t59 45t71.5 21t79.5 7l183 1q11 32 7.5 52.5t-19.5 28.5t-38 12t-50 4l-231 1
l29 109v0v0zM284 106h174l29 109h-164q-1 -1 -2 -1h-2h-2h-2q-14 -1 -27.5 -3.5t-27.5 -7.5q-13 -4 -22.5 -15.5t-14.5 -28.5q-7 -19 -4.5 -31t13.5 -15q11 -4 24 -6t28 -2v1v0z" />
    <glyph glyph-name="b" unicode="b" horiz-adv-x="611" 
d="M395 413h-85l-80 -300q5 -1 9.5 -1.5t9.5 -0.5h10.5h10.5q35 -1 68 1.5t64 9.5q32 6 56 32t40 71l2 6l2 6q0 3 1 6l2 6l2 6t2 7l2 6l2 6q1 5 2 10.5t2 11.5q0 5 0.5 10.5t0.5 10.5q0 11 -1 20.5t-4 18.5q-6 20 -17 32t-27 16t-34.5 6t-39.5 2v1v0zM392 718l-51 -191h120
q29 -1 57 -4.5t53 -11.5q26 -7 45 -23.5t32 -42.5q11 -21 16 -44t5 -49q-1 -25 -5 -51t-13 -52q-19 -58 -49 -104t-72 -79t-92 -49.5t-109 -16.5h-268l192 718h139v0v0z" />
    <glyph glyph-name="c" unicode="c" horiz-adv-x="527" 
d="M377 113h148l-30 -113h-189q-27 0 -53.5 2.5t-50.5 8.5q-23 6 -43 19t-35 32q-13 17 -21 36t-11 41q-4 23 -4 45.5t4 46.5q1 3 1.5 6.5t1.5 7.5q0 2 0.5 4t1.5 4q1 1 1.5 3t0.5 4q1 2 1.5 4.5t1.5 4.5q0 2 0.5 4.5t1.5 4.5q2 5 3.5 9.5t3.5 8.5q8 23 19.5 45.5t27.5 44.5
q15 22 33.5 41.5t40.5 35.5q26 20 52 32.5t53 18.5q14 3 27.5 5.5t27.5 3.5q13 2 27 2.5t27 0.5l190 1l-31 -114h-148q-1 0 -2 -0.5l-1 -0.5h-2h-2h-2.5h-3.5h-6h-6h-5.5h-4.5q-10 0 -20 -0.5t-20 -2.5q-3 0 -6.5 -1t-6.5 -2q-7 -2 -13.5 -4.5t-12.5 -5.5q-22 -11 -38.5 -26
t-27.5 -33q-11 -19 -19.5 -38t-13.5 -39q-5 -19 -6 -38t0 -37q2 -18 10 -31.5t23 -24.5q7 -5 15 -8t18 -5q8 -1 18 -2.5t20 -1.5h6h6h3.5h3.5h3h3h1.5h1.5h0.5h1.5h1.5h1.5h0.5h1.5v1v0z" />
    <glyph glyph-name="d" unicode="d" horiz-adv-x="609" 
d="M548 0h-267q-59 0 -101.5 16.5t-66.5 49.5t-30 79t7 104q6 26 16 52t23 51q13 26 31 49t40 44q27 26 55 42.5t56 23.5q29 8 58.5 11.5t60.5 3.5l120 1l51 191h139l-192 -718v0v0zM439 113l80 300q-4 -1 -8 -1h-8h-8h-7h-10h-10h-10h-10h-8.5h-9.5q-4 -1 -8.5 -1h-9.5
q-9 0 -18 -0.5t-18 -1.5q-8 -1 -16.5 -3t-16.5 -6q-9 -4 -16.5 -9t-14.5 -10q-13 -10 -24.5 -22.5t-19.5 -26.5q-4 -7 -7 -14t-6 -13l-6 -14t-5 -14l-2 -8t-2 -7q-1 -4 -2 -7.5t-2 -6.5q-13 -53 -6 -83.5t33 -38.5t60 -12t74 -3h4.5t5.5 1h2h2h3.5h3.5h10.5h10.5v1v0z" />
    <glyph glyph-name="e" unicode="e" horiz-adv-x="527" 
d="M295 0q-28 0 -54.5 3t-51.5 10t-44 21t-33 36q-12 17 -17.5 37.5t-7.5 42.5q-1 23 1 45.5t6 46.5q1 2 1.5 4.5t1.5 5.5q1 2 1.5 4.5t1.5 5.5q0 2 0.5 3.5t1.5 3.5q0 1 0.5 3t0.5 3q1 3 2.5 6.5t2.5 7.5q8 23 18 44.5t23 43.5t29.5 41.5t36.5 36.5q26 22 53 36t55 21
t56 10.5t56 3.5l204 1l-30 -110h-184q-29 -1 -53.5 -5.5t-44.5 -12.5t-34.5 -28.5t-24.5 -53.5l315 1l-30 -110h-314q-8 -34 -5 -55t18 -29q14 -7 36.5 -11t53.5 -4l185 1l-29 -110h-203v0v0z" />
    <glyph glyph-name="f" unicode="f" horiz-adv-x="392" 
d="M221 422h-100l28 105h100q0 2 0.5 4t1.5 4q0 2 0.5 4t1.5 5q12 43 24.5 75t27.5 54q14 21 49 32t90 12l132 1l-27 -102q-1 0 -2.5 -0.5t-2.5 -0.5h-3h-3h-2.5t-3.5 1h-2.5h-3.5h-4h-4h-5h-4h-4.5t-4.5 1h-4h-4q-9 0 -18 -0.5t-17 -2.5q-9 -1 -15 -3.5t-11 -5.5
q-7 -4 -12.5 -9.5t-8.5 -11.5q-3 -7 -5.5 -13.5t-4.5 -12.5q-1 -3 -1.5 -5t-0.5 -4q-1 -2 -1.5 -4t-0.5 -4t-0.5 -4t-1.5 -4q0 -2 -0.5 -3.5t-1.5 -3.5l133 1l-28 -105h-132l-113 -422h-144l113 422v0v0z" />
    <glyph glyph-name="g" unicode="g" horiz-adv-x="610" 
d="M559 19q-14 -50 -36.5 -89t-51.5 -66q-31 -26 -72.5 -39.5t-94.5 -13.5l-273 -1l28 107h249q22 2 39 7t30 16q14 10 23 25.5t14 34.5h-113q-29 0 -55.5 1.5t-49.5 5.5q-23 3 -42.5 15.5t-35.5 34.5q-13 17 -21.5 37t-11.5 43t-2.5 46.5t4.5 47.5q1 3 1.5 5.5t0.5 4.5
q0 1 0.5 2.5t0.5 2.5q2 4 2.5 7.5t1.5 7.5q2 5 3 9.5t2 8.5q2 5 3.5 9.5t3.5 8.5q8 23 20 45.5t27 44.5t33.5 41.5t40.5 35.5q26 20 52 32t53 18t54 9t55 3l254 1l-136 -508v0v0zM371 109h72l81 305q-4 -1 -8.5 -1h-9.5h-8.5t-9.5 1h-7.5h-6.5h-6h-6q-33 0 -64 -4.5
t-61 -13.5q-31 -10 -53 -36.5t-36 -70.5q0 -1 -0.5 -2.5t-1.5 -3.5q-1 -1 -1.5 -2.5t-0.5 -3.5q-1 -3 -1.5 -6t-1.5 -6q-6 -19 -9 -38t-3 -37q1 -18 8.5 -33t20.5 -27q8 -7 16.5 -11t18.5 -6t20.5 -3.5t21.5 -1.5h3.5h3.5h3h3h3.5h3.5h3h3h1.5h1.5h0.5h1.5h2h2l1 1v0z" />
    <glyph glyph-name="h" unicode="h" horiz-adv-x="602" 
d="M252 718h138l-51 -191h124q50 -1 87 -11.5t61 -30.5t29 -58t-9 -94l-89 -333h-140l85 318q7 25 6.5 43t-7.5 28q-8 11 -25 16t-43 5l-110 1l-110 -411h-138l192 718v0v0z" />
    <glyph glyph-name="i" unicode="i" horiz-adv-x="266" 
d="M206 0h-146l141 527h146l-141 -527v0v0zM363 587h-146l35 131h146l-35 -131v0v0z" />
    <glyph glyph-name="j" unicode="j" horiz-adv-x="266" 
d="M363 587h-146l35 131h146l-35 -131v0v0zM-29 -79q23 2 37.5 9.5t24.5 21.5q11 15 18 30t12 31q0 1 0.5 2t0.5 2t0.5 2t0.5 2q1 2 1.5 4.5t1.5 4.5l133 497h146l-135 -501q0 -2 -1 -4t-1 -4q-1 -3 -2 -6.5t-2 -6.5q-1 -4 -2.5 -8.5l-3.5 -10.5q-6 -17 -14 -34.5t-18 -34.5
t-23.5 -32.5t-30.5 -28.5q-7 -5 -13.5 -9.5t-13.5 -7.5q-13 -8 -26.5 -13t-27.5 -8q-20 -4 -40 -6t-40 -2h-8.5h-9.5h-4.5h-5.5h-4.5h-4.5q-4 1 -8 1h-8h-4h-5h-4h-4l27 110h61v0v0z" />
    <glyph glyph-name="k" unicode="k" horiz-adv-x="602" 
d="M256 718h139l-119 -444l292 253h176l-313 -258l172 -269h-187l-145 256l-68 -256h-139l192 718v0v0z" />
    <glyph glyph-name="l" unicode="l" horiz-adv-x="262" 
d="M203 0h-145l192 718h145l-192 -718v0v0z" />
    <glyph glyph-name="m" unicode="m" horiz-adv-x="877" 
d="M201 527h534q50 -1 87 -11.5t61 -30.5q23 -20 28 -58t-9 -94l-89 -333h-140l84 316q10 37 7.5 58t-16.5 27t-36.5 8.5t-54.5 1.5q-6 -1 -11.5 -1h-10.5h-10.5h-10.5l-109 -410h-142l110 411h-163l-110 -411h-140l141 527v0v0z" />
    <glyph glyph-name="n" unicode="n" horiz-adv-x="600" 
d="M201 527h262q51 -1 89 -11t62 -30q23 -20 27.5 -58.5t-10.5 -94.5l-89 -333h-139l84 317q8 27 8.5 45.5t-6.5 28.5q-7 9 -24 14t-45 5l-111 1l-110 -411h-139l141 527v0v0z" />
    <glyph glyph-name="o" unicode="o" horiz-adv-x="609" 
d="M522 63q-25 -19 -51 -33t-56 -23q-19 -6 -38 -9.5t-38 -5.5q-10 -1 -19 -1.5t-19 -0.5q-28 0 -55 4.5t-51 12.5q-24 9 -43 22.5t-33 32.5t-23 41.5t-12 49.5q-2 26 1 53.5t10 55.5q8 28 19.5 55t28.5 54q17 26 37.5 49t45.5 42q24 18 50.5 32t55.5 23t58.5 14t57.5 5
t53.5 -5t50.5 -14t44 -23t33 -32q14 -19 22.5 -42t11.5 -49q2 -27 0.5 -54t-9.5 -55q-7 -28 -20 -55.5t-30 -53.5q-16 -27 -36.5 -49.5t-45.5 -41.5v1v0zM287 112l5 -2.5t6 -2.5l6 -2t6 -1q23 -4 47 0.5t48 17.5q24 12 43 30.5t33 42.5q5 8 8.5 17t7.5 19q5 10 8 20l6 20
q5 22 5 43t-4 40q-4 20 -15 34.5t-30 23.5q-4 2 -8.5 3.5t-8.5 2.5q-5 1 -9.5 1.5t-9.5 1.5q-11 1 -22.5 0t-22.5 -4q-12 -2 -23.5 -6.5t-22.5 -10.5q-24 -13 -42 -30t-31 -40q-5 -9 -9.5 -18t-8.5 -18t-6 -18l-4 -18q-7 -24 -7.5 -46t4.5 -43t17.5 -35.5t32.5 -22.5l1 1v0z
" />
    <glyph glyph-name="p" unicode="p" horiz-adv-x="611" 
d="M202 527h268q58 -1 99.5 -18t65.5 -50q24 -34 30 -79.5t-7 -103.5q-5 -27 -14.5 -52.5t-22.5 -51.5q-14 -25 -31.5 -48.5t-39.5 -43.5q-27 -26 -55 -42.5t-57 -23.5q-28 -7 -58 -10.5t-60 -3.5h-120l-51 -190h-139l192 717v0v0zM310 413l-80 -300q2 0 3.5 -0.5t3.5 -0.5
h3h3h6.5h7.5q47 -1 87.5 4t73.5 15q32 11 56 47t40 99q12 53 5 83t-33 38t-59.5 11.5t-73.5 3.5q-6 -1 -11.5 -1h-10.5h-10.5h-10.5v1v0z" />
    <glyph glyph-name="q" unicode="q" horiz-adv-x="610" 
d="M359 -190l51 190h-119q-31 0 -58.5 3.5t-53.5 10.5q-25 7 -44 23.5t-33 42.5q-11 20 -16.5 43.5t-4.5 48.5q0 26 4.5 51.5t12.5 52.5q19 58 49 103.5t72 79.5q42 33 92.5 50t109.5 17l269 1l-192 -717h-139v0v0zM355 113h85l80 300q-5 -1 -10.5 -1h-10.5h-5.5t-4.5 1
h-5.5h-4.5h-1.5h-0.5h-1.5h-0.5q-34 1 -66.5 -2t-63.5 -10t-54.5 -32t-38.5 -69l-2 -6t-2 -5l-2 -6l-2 -6q-1 -6 -2.5 -11.5t-3.5 -10.5q-3 -12 -4.5 -23t-1.5 -22q-1 -11 0 -21.5t5 -20.5q5 -20 16.5 -32t27.5 -16q15 -4 34 -6t40 -2v1v0z" />
    <glyph glyph-name="r" unicode="r" horiz-adv-x="470" 
d="M201 527h234q56 -1 85.5 -13.5t31.5 -38.5q2 -25 -3.5 -59.5t-16.5 -77.5l-2 -8l-2 -8q-1 -2 -1.5 -4t-0.5 -4q-1 -3 -1.5 -5t-1.5 -4l-133 1q1 2 1.5 5t1.5 6l1.5 3t0.5 3v0.5v0.5q0 1 0.5 2t0.5 2q10 36 13 57.5t-2 27.5q-4 6 -24 9t-56 3h-4h-4h-2h-1h-2h-2l-113 -425
h-139l141 527v0v0z" />
    <glyph glyph-name="s" unicode="s" horiz-adv-x="594" 
d="M81 110h293q1 -1 2 -1h2h2h2q6 0 12 0.5t13 2.5q6 1 12 3t12 5q11 5 19.5 15t12.5 26q4 14 1 24t-11 15q-9 5 -19 8t-21 4h-2.5h-3.5h-2.5h-3.5l-119 1q-43 -1 -75 5t-52 18q-21 12 -25.5 42.5t8.5 79.5q12 46 33 78.5t52 51.5t67 28.5t79 9.5l300 1l-30 -110h-246
q-1 -1 -2.5 -1h-3.5h-1.5h-0.5h-1.5h-1.5h-7.5h-6.5h-6.5h-7.5t-9 -1t-9 -2q-5 -1 -9.5 -2t-9.5 -3q-10 -4 -16.5 -10.5t-11.5 -15.5q-10 -18 -9.5 -30t10.5 -18q9 -7 21 -10t27 -3l126 1q37 -1 65 -9.5t49 -25.5q21 -16 26.5 -45t-3.5 -70q-1 -1 -1 -1.5v-0.5v0v0v-1v0
q-9 -32 -26 -61.5t-43 -55.5q-25 -26 -55 -39t-65 -13h-359l29 110v0v0z" />
    <glyph glyph-name="t" unicode="t" horiz-adv-x="414" 
d="M149 527h98l51 191h139l-51 -191h147l-28 -105h-147l-57 -213q-12 -40 -9 -63t20 -29q16 -7 40.5 -10t57.5 -3h2h2h1.5h1.5h0.5h1.5l-27 -104h-127q-40 0 -67 11t-41 33t-16 52t8 68l70 258h-98l28 105v0v0z" />
    <glyph glyph-name="u" unicode="u" horiz-adv-x="602" 
d="M537 0h-262q-51 0 -88.5 10t-61.5 30q-25 20 -29 58t11 94l90 335h139l-87 -323q-7 -27 -7 -44.5t8 -26.5t24.5 -13.5t41.5 -4.5l113 1l110 411h139l-141 -527v0v0z" />
    <glyph glyph-name="v" unicode="v" horiz-adv-x="610" 
d="M142 527h156l45 -374l256 374h150l-375 -527h-150l-82 527v0v0z" />
    <glyph glyph-name="w" unicode="w" horiz-adv-x="873" 
d="M529 360l-206 -360h-154l-42 527h145l17 -369l214 369h148l18 -369l215 369h143l-319 -527h-160l-19 360v0v0z" />
    <glyph glyph-name="x" unicode="x" horiz-adv-x="553" 
d="M267 263l-125 264h162l70 -159l159 159h160l-267 -267l123 -260h-162l-71 153l-152 -153h-161l264 263v0v0z" />
    <glyph glyph-name="y" unicode="y" horiz-adv-x="602" 
d="M317 116h112l110 411h139l-138 -513q-13 -49 -35 -87.5t-52 -63.5q-31 -26 -72 -39t-93 -13l-273 -1l28 107h249q22 2 39 7t30 15q14 10 22.5 25.5t14.5 35.5h-123q-54 0 -92 10.5t-60 32.5q-22 21 -25.5 60.5t11.5 97.5l88 326h138l-84 -314q-8 -29 -9.5 -48.5
t5.5 -29.5q6 -10 23.5 -15t45.5 -5l1 1v0z" />
    <glyph glyph-name="z" unicode="z" horiz-adv-x="584" 
d="M75 113l392 300h-312l31 114h494l-31 -114l-392 -300h312l-30 -113h-494l30 113v0v0z" />
    <glyph glyph-name="braceleft" unicode="{" horiz-adv-x="500" 
d="M624 721l-28 -102q-31 0 -52.5 -4t-35.5 -12q-14 -7 -25 -28t-20 -54l-31 -116q-9 -33 -19.5 -57t-24.5 -41q-13 -16 -37 -28.5t-59 -20.5q30 -8 47.5 -20t22.5 -29q5 -16 2.5 -40t-10.5 -56l-31 -116q-9 -32 -9 -53t10 -28q9 -8 29 -11t51 -3l-27 -103q-2 1 -4.5 1h-4.5
h-5h-4h-6t-6 -1h-7h-6h-6h-6h-7h-6q-4 0 -9 0.5t-9 0.5l-18 2t-18 3q-13 2 -24.5 6.5t-21.5 11.5q-13 9 -20 20.5t-8 25.5q-1 15 0.5 30t4.5 31q1 2 1.5 4t1.5 4q0 2 0.5 4t1.5 4q0 2 0.5 4t1.5 4t1.5 4t0.5 4v0.5t1 0.5v1v0v0v0v1v0l33 121q10 37 9 61.5t-12 36.5
q-12 12 -35.5 17.5t-58.5 5.5l28 103q35 -1 61 4.5t44 17.5t32 37.5t24 62.5l33 123v0v0v0.5t1 1.5l2 8l2 8q1 2 1.5 4t1.5 5q0 2 0.5 4t1.5 4q5 15 11.5 30t15.5 30q8 15 21.5 26.5t30.5 20.5l14 6t14 5q7 3 14 4.5t14 2.5q14 2 28.5 3.5t28.5 1.5h10.5h10.5h10h10h3.5h3.5
h3h3h3.5h3.5h3h3l1 1v0z" />
    <glyph glyph-name="bar" unicode="|" horiz-adv-x="500" 
d="M404 764h101l-267 -999h-101l267 999v0v0z" />
    <glyph glyph-name="braceright" unicode="}" horiz-adv-x="500" 
d="M263 721q2 -1 4.5 -1h5.5h3h3h2.5h2.5h10.5h11.5h11h12q5 0 9.5 -0.5t8.5 -0.5q9 -1 18.5 -2t17.5 -3q13 -2 25 -6.5t22 -11.5q13 -9 19.5 -20.5t7.5 -25.5q0 -15 -1 -30t-4 -31q0 -2 -0.5 -4t-1.5 -4t-1.5 -4t-0.5 -4l-2 -8l-2 -8q-1 -1 -1 -1.5v-0.5v0v0v-1v0l-33 -122
q-10 -37 -9.5 -62.5t11.5 -37.5q12 -12 35.5 -18t58.5 -5l-27 -101q-35 0 -61.5 -6.5t-44.5 -18.5q-19 -12 -32.5 -36.5t-23.5 -61.5l-32 -121v1v-1v0v0v0v-1q-1 0 -1 -0.5v-0.5q0 -2 -0.5 -4t-1.5 -4t-1.5 -4t-0.5 -4q-1 -2 -1.5 -4t-0.5 -4q-1 -2 -1.5 -4t-1.5 -4
q-5 -16 -12.5 -31t-15.5 -30q-8 -14 -21 -25.5t-30 -20.5q-14 -7 -28.5 -11.5t-28.5 -6.5t-28.5 -3.5t-28.5 -2.5h-13h-12h-6h-5q-3 1 -6 1h-6h-4.5h-4.5h-4.5h-4.5l27 101q31 1 53 4t35 11q12 7 23.5 27.5t21.5 54.5l31 115q8 32 19.5 56t24.5 40q13 17 37.5 29t58.5 20
q-30 8 -47.5 20.5t-22.5 28.5q-4 17 -2.5 41t10.5 56l32 119q8 32 7 52.5t-9 27.5q-9 8 -29 11.5t-51 3.5l28 103v0v0z" />
    <glyph glyph-name="asciitilde" unicode="~" horiz-adv-x="833" 
d="M852 392l-29 -108q-27 -15 -49.5 -26t-42.5 -19t-39 -13t-36 -7q-21 -3 -41.5 -2t-40.5 5q-20 5 -43 12t-48 17q-28 11 -52.5 17.5t-46.5 9.5q-7 1 -14.5 1h-14.5q-15 0 -29.5 -1.5t-28.5 -4.5q-17 -4 -34.5 -11t-36.5 -15q-19 -9 -40.5 -19.5t-44.5 -24.5l29 109
q21 11 41 20.5t39 16.5q19 8 37 14t35 10q24 5 47.5 6t46.5 -1q23 -3 47.5 -9t50.5 -17q26 -10 49 -17.5t43 -12.5q20 -4 39.5 -5t38.5 2q17 3 35.5 8.5t37.5 14.5q20 8 43 20.5t51 28.5l1 1v0z" />
    <glyph glyph-name="exclamdown" unicode="&#xa1;" horiz-adv-x="313" 
d="M222 533h151l-142 -533h-151l142 533v0v0zM273 718h151l-35 -129h-151l35 129v0v0z" />
    <glyph glyph-name="cent" unicode="&#xa2;" horiz-adv-x="410" 
d="M326 149l-17 -64h-57l17 64q-22 0 -41.5 3t-37.5 7q-18 5 -33.5 15t-26.5 25q-10 13 -16.5 28t-9.5 32t-3.5 35t3.5 37q0 2 0.5 4t0.5 4t0.5 4t0.5 4q1 2 1.5 4t1.5 5q0 2 0.5 4t1.5 4q1 3 2 6.5t2 7.5q1 3 2.5 6.5t2.5 7.5q6 19 16 37.5t22 36.5q13 18 28 34.5t33 29.5
q20 15 40 25t41 15t42 8t43 4l17 63h57l-16 -62h106l-25 -92h-106l-67 -250h106l-25 -92h-106v0v0zM361 491q-28 -5 -50 -15.5t-37 -26.5q-16 -16 -27 -37.5t-18 -47.5t-7 -47t7 -37t23 -26t42 -14l67 251v0v0z" />
    <glyph glyph-name="sterling" unicode="&#xa3;" horiz-adv-x="681" 
d="M189 123l51 187h-129l27 104h129q2 3 2.5 7t1.5 8q1 2 1.5 4t1.5 4q0 2 0.5 4.5t1.5 4.5q1 7 3 14l4 14t3.5 14t4.5 14q6 21 13.5 41.5t17.5 40.5t23.5 38t31.5 34q23 20 46 33t48 17q24 5 48.5 7.5t49.5 3.5h3.5h3.5h3h3h3.5h3.5h3h3h1.5h1.5h0.5h1.5h1.5h1.5h0.5h1.5
l183 1l-33 -124h-173q-46 0 -75.5 -9t-40.5 -27q-12 -18 -22 -44t-18 -59q-1 -5 -1.5 -10.5t-2.5 -10.5q-1 -5 -2.5 -10.5t-3.5 -10.5l177 1l-27 -104h-177l-51 -187h350l-32 -123h-628l32 123h129v0v0z" />
    <glyph glyph-name="currency" unicode="&#xa4;" horiz-adv-x="606" 
d="M272 702l73 -99q11 6 22 11t22 9q5 2 11 4t11 3q17 5 34 7t33 2q15 0 29.5 -2.5t27.5 -7.5q14 -4 26.5 -11t23.5 -16l126 100l37 -52l-126 -100q5 -14 8 -28.5t3 -29.5v-15t-1 -15q-1 -8 -2.5 -15.5t-3.5 -15.5q-4 -16 -10.5 -31t-14.5 -30q-9 -15 -19.5 -29t-23.5 -28
l73 -99l-65 -51l-72 99q-8 -5 -16 -9l-16 -8q-9 -4 -17 -7t-16 -5q-16 -4 -31.5 -6.5t-30.5 -2.5q-17 -1 -32.5 1.5t-29.5 6.5q-15 5 -28 12t-24 17l-126 -98l-37 51l126 100q-6 13 -9 27t-3 29q-1 15 1 30t6 31q2 8 4.5 15.5t5.5 15.5q3 7 7 15t8 15q9 15 19.5 29.5
t23.5 27.5l-72 101l65 52v0v0zM455 567q-27 -1 -53.5 -11t-51.5 -30t-41.5 -44t-24.5 -51q-7 -28 -4 -51.5t19 -43.5q14 -19 35 -29t49 -10q27 0 54 10t52 30t41.5 43.5t23.5 50.5t2.5 51t-18.5 44t-35 30t-48 10v1v0z" />
    <glyph glyph-name="yen" unicode="&#xa5;" horiz-adv-x="620" 
d="M84 291l16 58h206l-26 66h-162l15 57h121l-102 246h169l103 -274l254 274h175l-234 -246h123l-15 -57h-162l-65 -66h209l-16 -58h-232l-77 -291h-151l77 291h-226v0v0z" />
    <glyph glyph-name="brokenbar" unicode="&#xa6;" 
 />
    <glyph glyph-name="section" unicode="&#xa7;" horiz-adv-x="500" 
d="M55 24h190q1 -1 2.5 -1h2.5h1.5h1.5h0.5h1.5h4.5h5.5h6h6q5 0 10 0.5t11 1.5q5 1 10 2.5t10 3.5q10 3 18.5 10.5t15.5 19.5q9 18 10.5 31.5t-5.5 23.5q-8 10 -19.5 15t-28.5 6h-10h-10h-10h-10h-2.5h-3.5h-2.5h-2.5q-28 0 -54.5 2.5t-50.5 7.5t-40.5 22t-24.5 45
q-2 8 -3.5 17t-1.5 18t2 18.5t4 19.5l4 10l4 10q1 3 2 5.5t2 4.5q2 4 4 7.5t4 7.5q2 3 4.5 6.5t4.5 7.5q7 10 14.5 18t16.5 14t19 11.5t20 10.5q-16 12 -25 27t-11 34q-3 18 -0.5 38.5t9.5 42.5q14 45 37.5 78.5t54.5 54.5q32 21 70 31.5t81 10.5l232 1l-32 -118h-179
q-1 -1 -2 -1h-2h-1.5h-1.5h-5.5h-4.5h-4.5h-4.5q-13 -1 -25 -3t-23 -6q-12 -4 -21.5 -12t-17.5 -22q-9 -16 -9.5 -29.5t7.5 -22.5q8 -10 19.5 -15t26.5 -5h9.5h8.5h4.5h5.5h4.5h4.5h9.5h8.5h9.5h8.5q26 -1 49 -4.5t44 -10.5q20 -7 34 -23.5t19 -42.5q0 -1 0.5 -2.5t0.5 -3.5
q1 -2 1.5 -4.5t0.5 -5.5q0 -2 0.5 -4t0.5 -4v-4v-4q-1 -22 -7.5 -42t-19.5 -40q-13 -19 -30 -35.5t-39 -29.5q14 -12 22.5 -27.5t9.5 -34.5t-1.5 -39.5t-8.5 -41.5q-6 -20 -15.5 -39t-21.5 -37q-13 -17 -29 -32.5t-36 -28.5q-9 -6 -17.5 -11t-17.5 -9q-9 -3 -17.5 -6
t-17.5 -4q-17 -3 -35 -5t-36 -2l-239 -1l32 118v0v0zM295 256h74v-0.5t1 -0.5v0v0v0l1 1h0.5h0.5q11 6 21 13t20 15q9 8 15.5 18t9.5 23q2 13 -2.5 22t-15.5 13q-8 4 -18 6t-21 3q-2 0 -4.5 0.5t-5.5 0.5h-6h-6q-3 -1 -5.5 -1h-5.5h-6h-5q-3 -1 -5.5 -1h-4.5h-4h-4
q-2 -1 -3.5 -1h-3.5h-6h-5q-11 -4 -21 -9.5t-18 -13.5q-4 -4 -8 -7.5t-7 -6.5q-3 -4 -5.5 -7.5t-4.5 -7.5q-6 -11 -6.5 -21.5t5.5 -19.5q5 -10 20 -14.5t39 -4.5v1v0z" />
    <glyph glyph-name="dieresis" unicode="&#xa8;" 
 />
    <glyph glyph-name="copyright" unicode="&#xa9;" 
 />
    <glyph glyph-name="ordfeminine" unicode="&#xaa;" horiz-adv-x="476" 
d="M245 717h214q17 -1 33 -3t31 -5t27.5 -10.5t21.5 -19.5q8 -10 12.5 -21t5.5 -25q1 -13 -0.5 -26.5t-4.5 -27.5l-62 -230h-281q-31 -1 -52.5 6.5t-32.5 23.5q-12 16 -13.5 37.5t7.5 49.5q11 33 29.5 54.5t43.5 31.5q26 10 54.5 15t59.5 5l137 1q7 23 4.5 36.5t-14.5 19.5
q-12 5 -29 8t-38 3l-174 1l21 76v0v0zM305 423h131l20 76h-123q-1 -1 -2 -1h-2h-2h-2q-10 -1 -20.5 -3t-19.5 -5q-10 -3 -16.5 -10.5t-9.5 -19.5q-4 -13 -2.5 -21.5t9.5 -10.5q8 -3 18 -4.5t21 -1.5v1v0z" />
    <glyph glyph-name="guillemotleft" unicode="&#xab;" horiz-adv-x="630" 
d="M239 263l126 -173h-152l-117 173l218 175h149l-224 -175v0v0zM477 263l126 -173h-152l-117 173l218 175h149l-224 -175v0v0z" />
    <glyph glyph-name="logicalnot" unicode="&#xac;" 
 />
    <glyph glyph-name="sfthyphen" unicode="&#xad;" 
 />
    <glyph glyph-name="registered" unicode="&#xae;" 
 />
    <glyph glyph-name="overstore" unicode="&#xaf;" 
 />
    <glyph glyph-name="glyph113" unicode="&#xb0;" 
 />
    <glyph glyph-name="plusminus" unicode="&#xb1;" 
 />
    <glyph glyph-name="twosuperior" unicode="&#xb2;" 
 />
    <glyph glyph-name="threesuperior" unicode="&#xb3;" 
 />
    <glyph glyph-name="acute" unicode="&#xb4;" horiz-adv-x="500" 
d="M463 729h144l-208 -139h-70l134 139v0v0z" />
    <glyph glyph-name="mu" unicode="&#xb5;" 
 />
    <glyph glyph-name="paragraph" unicode="&#xb6;" horiz-adv-x="500" 
d="M673 722l-15 -54h-55l-178 -668h-74l178 668h-77l-178 -668h-75l102 383q-16 1 -30 3t-27 6q-14 3 -26 10t-22 17q-13 12 -21 26.5t-11 32.5q-4 17 -3 35.5t6 37.5q11 41 34 72.5t57 53.5q35 22 71 33t75 11l269 1v0v0z" />
    <glyph glyph-name="middot" unicode="&#xb7;" 
 />
    <glyph glyph-name="cedilla" unicode="&#xb8;" horiz-adv-x="500" 
d="M102 -136q3 0 7 -1l8 -2q3 -1 7 -2t8 -3q1 0 2.5 -0.5t2.5 -0.5q5 -1 9.5 -2t8.5 -2q5 -1 10.5 -1.5t10.5 -1.5q13 -2 25.5 -3t25.5 0q12 1 20.5 4.5t15.5 11.5q9 12 10 19.5t-5 12.5q-7 4 -15 7t-18 4h-10h-10h-8h-7h-1.5h-0.5v0v0h-1v0l27 101h54l-12 -45q3 1 6 1h6h6
t6 -1q9 0 17 -1.5t16 -4.5q2 -1 4.5 -2t5.5 -2q9 -5 16 -12.5t10 -19.5q2 -5 2.5 -10t0.5 -11q0 -5 -1.5 -11t-3.5 -12q-1 -8 -5 -15.5t-9 -14.5q-4 -8 -10 -14.5t-12 -12.5q-15 -13 -31.5 -21t-33.5 -11q-18 -3 -36 -3.5t-36 1.5q-10 1 -19.5 2.5t-18.5 3.5q-10 2 -18.5 4
t-16.5 4q-4 1 -7 2l-6 2q-4 1 -7 1.5t-5 1.5l16 60v0v0z" />
    <glyph glyph-name="onesuperior" unicode="&#xb9;" 
 />
    <glyph glyph-name="ordmasculine" unicode="&#xba;" horiz-adv-x="457" 
d="M485 393q-19 -13 -39 -23.5t-42 -16.5q-22 -7 -43 -10t-42 -2q-21 0 -41 3t-38 10q-19 6 -33 15.5t-25 22.5q-12 14 -18.5 29.5t-8.5 34.5q-3 18 -1 37.5t7 39.5t13.5 38.5t20.5 36.5q13 18 28 34.5t34 29.5q17 13 37 22.5t42 16.5q21 6 42.5 9.5t43.5 3.5
q21 0 40.5 -3.5t38.5 -9.5q18 -7 32.5 -16.5t26.5 -22.5q11 -13 17 -29.5t8 -34.5q3 -18 1.5 -36.5t-6.5 -38.5t-13.5 -39.5t-20.5 -37.5q-13 -19 -28.5 -34.5t-32.5 -29.5v1v0zM307 427q2 -1 4 -2.5t5 -1.5q1 0 1.5 -0.5t1.5 -0.5t2.5 -0.5t3.5 -0.5q17 -3 34.5 0.5
t35.5 12.5t32 22t24 29q4 6 7 12.5t6 13.5q2 5 3.5 9.5t2.5 8.5q1 3 1.5 5.5t1.5 4.5q3 15 3.5 30t-4.5 28q-4 14 -12 24t-22 16q-3 2 -6.5 2.5t-7.5 1.5q-3 1 -6.5 1.5t-7.5 0.5q-16 2 -33 -2t-34 -13t-31 -21.5t-23 -27.5l-4 -6l-4 -6q-1 -4 -2.5 -7t-2.5 -6
q-2 -7 -4 -13.5t-4 -12.5q-4 -16 -4 -31.5t4 -29.5q3 -15 13 -25t26 -16v1v0z" />
    <glyph glyph-name="guillemotright" unicode="&#xbb;" horiz-adv-x="630" 
d="M511 264l-125 174h152l116 -174l-217 -174h-149l223 174v0v0zM273 264l-125 174h151l117 -174l-218 -174h-148l223 174v0v0z" />
    <glyph glyph-name="onequarter" unicode="&#xbc;" 
 />
    <glyph glyph-name="onehalf" unicode="&#xbd;" 
 />
    <glyph glyph-name="threequarters" unicode="&#xbe;" 
 />
    <glyph glyph-name="questiondown" unicode="&#xbf;" horiz-adv-x="693" 
d="M811 591h-164l34 127h164l-34 -127v0v0zM629 523l4 18h164q-8 -31 -18.5 -60.5t-22.5 -57.5q-13 -28 -35 -51t-54 -42q-21 -12 -43 -20t-45 -12q-11 -2 -22 -3.5t-22 -2.5t-22 -1.5t-22 -0.5h-14h-14h-14h-14h-8t-8 1h-7.5h-7.5h-14.5h-15.5q-22 0 -41.5 -5t-36.5 -15
t-28 -27.5t-16 -42.5q-5 -27 -0.5 -43.5t20.5 -22.5t35 -9t42 -3l352 1l-33 -124h-384h-2.5h-3.5h-1.5h-0.5h-1.5h-1.5h-13.5h-13.5h-13.5h-13.5q-13 0 -26 1.5t-25 4.5q-12 2 -22.5 6.5t-20.5 10.5q-19 12 -30.5 28.5t-16.5 37.5q-4 21 -4 43.5t4 46.5q1 2 1 3.5v3.5
q1 2 1.5 4t0.5 4q13 54 37 95.5t59 71.5q35 29 80.5 44t100.5 15l126 1q28 -1 51 4t40 15q18 11 31.5 31t21.5 51l1 1v0z" />
    <glyph glyph-name="Agrave" unicode="&#xc0;" 
 />
    <glyph glyph-name="Aacute" unicode="&#xc1;" 
 />
    <glyph glyph-name="Acircumflex" unicode="&#xc2;" 
 />
    <glyph glyph-name="Atilde" unicode="&#xc3;" 
 />
    <glyph glyph-name="Adieresis" unicode="&#xc4;" 
 />
    <glyph glyph-name="Aring" unicode="&#xc5;" 
 />
    <glyph glyph-name="AE" unicode="&#xc6;" horiz-adv-x="1117" 
d="M510 575l-179 -276h227l-28 276h-20v0v0zM-21 0l495 718h164l17 -174q41 50 81 84.5t79 52.5t88.5 27t107.5 9l240 1l-34 -125h-248q-42 -1 -76 -12t-60 -33t-45.5 -52.5t-33.5 -70.5l419 1l-34 -125h-419q-5 -19 -8 -37.5t-3 -35.5q-1 -18 3.5 -34t12.5 -30
q9 -13 20 -22t26 -12t31.5 -4.5t32.5 -1.5h2h2h1.5h1.5h0.5h1.5l248 1l-33 -125h-244q-54 0 -94 5t-66 15q-25 11 -45.5 34.5t-34.5 60.5q-2 4 -3.5 8t-2.5 9q-1 2 -1.5 4.5t-1.5 4.5q-2 7 -4 14.5t-4 14.5l-311 1l-109 -171h-159v0v0z" />
    <glyph glyph-name="Ccedilla" unicode="&#xc7;" 
 />
    <glyph glyph-name="Egrave" unicode="&#xc8;" 
 />
    <glyph glyph-name="Eacute" unicode="&#xc9;" 
 />
    <glyph glyph-name="Ecircumflex" unicode="&#xca;" 
 />
    <glyph glyph-name="Edieresis" unicode="&#xcb;" 
 />
    <glyph glyph-name="Igrave" unicode="&#xcc;" 
 />
    <glyph glyph-name="Iacute" unicode="&#xcd;" 
 />
    <glyph glyph-name="Icircumflex" unicode="&#xce;" 
 />
    <glyph glyph-name="Idieresis" unicode="&#xcf;" 
 />
    <glyph glyph-name="Eth" unicode="&#xd0;" 
 />
    <glyph glyph-name="Ntilde" unicode="&#xd1;" 
 />
    <glyph glyph-name="Ograve" unicode="&#xd2;" 
 />
    <glyph glyph-name="Oacute" unicode="&#xd3;" 
 />
    <glyph glyph-name="Ocircumflex" unicode="&#xd4;" 
 />
    <glyph glyph-name="Otilde" unicode="&#xd5;" 
 />
    <glyph glyph-name="Odieresis" unicode="&#xd6;" 
 />
    <glyph glyph-name="multiply" unicode="&#xd7;" 
 />
    <glyph glyph-name="Oslash" unicode="&#xd8;" horiz-adv-x="773" 
d="M20 -8l108 99q-13 23 -19.5 53t-6.5 67q0 36 6 74t16 78q11 43 29 84.5t41 81.5t50.5 71.5t58.5 53.5q26 19 57 33t66 24q35 9 71.5 14.5t73.5 6.5q32 0 61.5 -2.5t57.5 -8.5q29 -6 51.5 -15t41.5 -21l48 42h96l-98 -89q17 -22 25 -53t8 -70q1 -39 -5 -80t-18 -83
q-13 -43 -30 -84.5t-40 -80.5t-49.5 -69.5t-55.5 -52.5q-27 -19 -55.5 -33.5t-59.5 -23.5q-31 -8 -61 -13t-60 -7q-16 -1 -31.5 -1h-30.5q-15 1 -29.5 1.5t-27.5 2.5q-20 2 -39 6t-36 10t-33.5 14.5t-30.5 18.5l-53 -48h-97v0v0zM700 524l-410 -380q8 -13 21.5 -23t29.5 -16
t35 -8.5t38 -1.5q16 0 32.5 2.5t32.5 6.5q17 5 32.5 11t29.5 13q21 11 38 26.5t31 34.5t25.5 38.5t20.5 40.5l2 6t3 6q1 2 2 5l2 6q3 6 5.5 12t4.5 12q10 27 16 54t10 52q3 26 3 51.5t-4 50.5v1v0zM668 586q-3 1 -5.5 2.5t-4.5 2.5q-1 1 -2.5 1.5t-2.5 1.5q-1 0 -2 0.5
l-3 1.5q-10 5 -21.5 9.5t-22.5 7.5q-12 3 -25.5 4.5t-27.5 1.5h-4h-4h-4h-4q-19 -1 -38 -5t-39 -10q-19 -7 -37 -17.5t-35 -24.5q-20 -17 -37 -38.5t-30 -47.5q-13 -25 -22.5 -51.5t-16.5 -53.5q-6 -22 -10 -44t-6 -43t-2 -39.5t2 -35.5l404 377v0v0z" />
    <glyph glyph-name="Ugrave" unicode="&#xd9;" 
 />
    <glyph glyph-name="Uacute" unicode="&#xda;" 
 />
    <glyph glyph-name="Ucircumflex" unicode="&#xdb;" 
 />
    <glyph glyph-name="Udieresis" unicode="&#xdc;" 
 />
    <glyph glyph-name="Yacute" unicode="&#xdd;" 
 />
    <glyph glyph-name="Thorn" unicode="&#xde;" 
 />
    <glyph glyph-name="germandbls" unicode="&#xdf;" horiz-adv-x="690" 
d="M654 461l-126 -65q-7 -4 -11.5 -6.5t-6.5 -4.5q-3 -2 -4 -3.5t0 -3.5v-1.5t1 -0.5q0 -1 1 -1.5t2 -1.5l5 -2.5l7 -3.5l87 -40q19 -10 35 -23t28 -28q13 -16 17 -36t-1 -46q-6 -39 -23 -73t-44 -63t-61.5 -43.5t-75.5 -14.5h-184l29 110h122q2 -1 4 -1h5h4.5t4.5 1
q5 0 10 1t11 3q5 1 10 3l10 4q11 5 18 12.5t13 18.5q7 14 9 26t-3 22q-4 9 -11 17t-16 15l-14 7t-17 8l-10 4l-10 4l-11 5.5t-10 5.5q-14 6 -26.5 13.5t-23.5 16.5q-11 8 -17.5 18t-7.5 21q-2 17 2 33.5t14 32.5q11 16 24.5 29t31.5 23q3 2 7 4l8 4q3 2 7 4t7 4q8 4 15.5 8
t14.5 8v0h1v0v0h0.5t0.5 1h0.5h0.5q9 5 18.5 10t19.5 10t19.5 10.5t19.5 11.5q1 1 2 1.5t2 1.5t2 2.5t2 2.5q1 2 2 3t2 3q1 1 1.5 2.5t1.5 2.5q0 1 0.5 1.5t0.5 1.5t0.5 1.5t0.5 1.5t0.5 1.5t0.5 1.5t0.5 1.5t0.5 1.5q5 17 4 28.5t-9 16.5q-7 5 -18.5 7.5t-26.5 3.5h-3h-3
h-3.5h-3.5h-2.5t-2.5 1h-3h-3h-4t-4 1h-4h-4h-4t-3 1h-3.5h-3.5q-16 0 -30.5 -2t-27.5 -7q-14 -4 -23 -14t-14 -27l-152 -568h-144l113 423h-100l28 104h100q0 2 0.5 4t1.5 4q0 2 0.5 4t1.5 5q12 43 24.5 75t27.5 54q14 21 49 32t90 12l144 1q3 -1 6 -1.5t7 -0.5h6.5h7.5
q22 -1 41.5 -6.5t38.5 -13.5q18 -9 29 -24t15 -37q1 -7 1.5 -15.5t-0.5 -16.5q0 -4 -0.5 -8.5t-1.5 -8.5q0 -5 -1 -9t-2 -9q-4 -16 -11.5 -31.5t-17.5 -30.5t-23 -26.5t-29 -19.5v1v0z" />
    <glyph glyph-name="agrave" unicode="&#xe0;" 
 />
    <glyph glyph-name="aacute" unicode="&#xe1;" 
 />
    <glyph glyph-name="acircumflex" unicode="&#xe2;" 
 />
    <glyph glyph-name="atilde" unicode="&#xe3;" 
 />
    <glyph glyph-name="adieresis" unicode="&#xe4;" 
 />
    <glyph glyph-name="aring" unicode="&#xe5;" 
 />
    <glyph glyph-name="ae" unicode="&#xe6;" horiz-adv-x="907" 
d="M211 527h273q23 -1 42.5 -4t35.5 -8q17 -6 31.5 -16.5t27.5 -27.5q1 1 2 1.5l3 1.5l2 2t3 2q11 7 21.5 12.5t21.5 10.5q10 5 21 8.5t21 6.5q20 5 41.5 7.5t45.5 2.5l217 1l-29 -109h-192q-29 -1 -53.5 -5.5t-43.5 -12.5q-20 -8 -35 -28.5t-25 -52.5l322 1l-28 -105h-324
q-7 -36 -4.5 -58t15.5 -31t35.5 -13.5t55.5 -4.5l194 1l-29 -109h-234q-22 0 -43.5 2.5t-40.5 8.5q-19 5 -33.5 16.5t-24.5 29.5l-15 -57h-289q-40 0 -69 11t-45 33q-16 23 -17 53.5t13 70.5q15 47 39.5 78t58.5 45t72 21t80 7l175 1q11 32 8 52.5t-19 28.5t-38 12t-50 4
l-225 1l29 109v0v0zM284 109h167l28 106h-156q-1 -1 -2.5 -1h-3.5h-2h-2q-14 -1 -27.5 -3.5t-27.5 -7.5q-13 -5 -22 -16t-14 -28q-6 -19 -3.5 -30t12.5 -14q11 -4 23 -5.5t26 -1.5v0h1v0v0h0.5h1.5l1 1v0z" />
    <glyph glyph-name="ccedilla" unicode="&#xe7;" 
 />
    <glyph glyph-name="egrave" unicode="&#xe8;" 
 />
    <glyph glyph-name="eacute" unicode="&#xe9;" 
 />
    <glyph glyph-name="ecircumflex" unicode="&#xea;" 
 />
    <glyph glyph-name="edieresis" unicode="&#xeb;" 
 />
    <glyph glyph-name="igrave" unicode="&#xec;" 
 />
    <glyph glyph-name="iacute" unicode="&#xed;" 
 />
    <glyph glyph-name="icircumflex" unicode="&#xee;" 
 />
    <glyph glyph-name="idieresis" unicode="&#xef;" 
 />
    <glyph glyph-name="eth" unicode="&#xf0;" 
 />
    <glyph glyph-name="ntilde" unicode="&#xf1;" 
 />
    <glyph glyph-name="ograve" unicode="&#xf2;" 
 />
    <glyph glyph-name="oacute" unicode="&#xf3;" 
 />
    <glyph glyph-name="ocircumflex" unicode="&#xf4;" 
 />
    <glyph glyph-name="otilde" unicode="&#xf5;" 
 />
    <glyph glyph-name="odieresis" unicode="&#xf6;" 
 />
    <glyph glyph-name="divide" unicode="&#xf7;" 
 />
    <glyph glyph-name="oslash" unicode="&#xf8;" horiz-adv-x="611" 
d="M118 66q-7 14 -14 27.5t-12 28.5q-4 15 -7 31t-2 33q0 9 1 18.5t2 19.5t3 20t6 20q6 21 14 41.5t19 40.5t25 39t30 37q24 28 53 48.5t62 33.5q32 14 65 21.5t66 8.5h30t28 -2q14 -1 26.5 -4t25.5 -7q3 -1 6 -2.5t7 -2.5q3 -2 6.5 -3t6.5 -3q3 -1 6.5 -3t7.5 -3
q3 -2 6.5 -3.5t6.5 -3.5l41 39h89l-87 -79q11 -22 18 -45.5t8 -49.5q2 -25 0.5 -51.5t-7.5 -52.5q-6 -21 -14 -41t-19 -40t-24.5 -39t-30.5 -37q-26 -28 -55 -48t-60 -32q-31 -13 -63.5 -19.5t-65.5 -8.5q-16 -1 -31.5 -1t-28.5 2q-14 1 -27 3.5t-26 5.5q-6 2 -12 4.5
t-12 5.5q-7 3 -13 6t-12 7l-40 -34h-88l86 74v0v0zM524 355l-263 -236q7 -6 15 -10t16 -7t17 -4.5t19 -1.5q14 -1 28 1.5t28 6.5q14 5 27.5 12.5t26.5 17.5q16 12 28 26.5t21 31.5t16.5 34t11.5 35q4 12 5.5 24t2.5 24q2 12 2 23.5t-2 21.5l1 1v0zM493 408l-8 4l-8 4
q-4 1 -8 3t-8 3q-5 1 -9.5 2t-9.5 2t-9.5 1.5t-9.5 0.5h-9.5h-9.5q-9 -1 -18.5 -3t-19.5 -5q-15 -4 -28.5 -11.5t-27.5 -18.5q-15 -12 -27 -25.5t-21 -30.5q-5 -8 -9 -16.5t-8 -16.5q-3 -9 -6 -17.5t-5 -16.5q-4 -13 -5.5 -26t-2.5 -26q0 -13 1 -24t3 -22l263 239v0v0z" />
    <glyph glyph-name="ugrave" unicode="&#xf9;" 
 />
    <glyph glyph-name="uacute" unicode="&#xfa;" 
 />
    <glyph glyph-name="ucircumflex" unicode="&#xfb;" 
 />
    <glyph glyph-name="udieresis" unicode="&#xfc;" 
 />
    <glyph glyph-name="yacute" unicode="&#xfd;" 
 />
    <glyph glyph-name="thorn" unicode="&#xfe;" 
 />
    <glyph glyph-name="ydieresis" unicode="&#xff;" 
 />
    <glyph glyph-name="Abreve" unicode="&#x102;" 
 />
    <glyph glyph-name="abreve" unicode="&#x103;" 
 />
    <glyph glyph-name="Aogonek" unicode="&#x104;" 
 />
    <glyph glyph-name="aogonek" unicode="&#x105;" 
 />
    <glyph glyph-name="Cacute" unicode="&#x106;" 
 />
    <glyph glyph-name="cacute" unicode="&#x107;" 
 />
    <glyph glyph-name="Ccaron" unicode="&#x10c;" 
 />
    <glyph glyph-name="ccaron" unicode="&#x10d;" 
 />
    <glyph glyph-name="Dcaron" unicode="&#x10e;" 
 />
    <glyph glyph-name="dcaron" unicode="&#x10f;" 
 />
    <glyph glyph-name="Dslash" unicode="&#x110;" 
 />
    <glyph glyph-name="dslash" unicode="&#x111;" 
 />
    <glyph glyph-name="Eogonek" unicode="&#x118;" 
 />
    <glyph glyph-name="eogonek" unicode="&#x119;" 
 />
    <glyph glyph-name="Ecaron" unicode="&#x11a;" 
 />
    <glyph glyph-name="ecaron" unicode="&#x11b;" 
 />
    <glyph glyph-name="Gbreve" unicode="&#x11e;" 
 />
    <glyph glyph-name="gbreve" unicode="&#x11f;" 
 />
    <glyph glyph-name="Idot" unicode="&#x130;" 
 />
    <glyph glyph-name="dotlessi" unicode="&#x131;" horiz-adv-x="266" 
d="M206 0h-146l141 527h146l-141 -527v0v0z" />
    <glyph glyph-name="Lacute" unicode="&#x139;" 
 />
    <glyph glyph-name="lacute" unicode="&#x13a;" 
 />
    <glyph glyph-name="Lcaron" unicode="&#x13d;" 
 />
    <glyph glyph-name="lcaron" unicode="&#x13e;" 
 />
    <glyph glyph-name="Ldot" unicode="&#x13f;" 
 />
    <glyph glyph-name="ldot" unicode="&#x140;" 
 />
    <glyph glyph-name="Lslash" unicode="&#x141;" 
 />
    <glyph glyph-name="lslash" unicode="&#x142;" 
 />
    <glyph glyph-name="Nacute" unicode="&#x143;" 
 />
    <glyph glyph-name="nacute" unicode="&#x144;" 
 />
    <glyph glyph-name="Ncaron" unicode="&#x147;" 
 />
    <glyph glyph-name="ncaron" unicode="&#x148;" 
 />
    <glyph glyph-name="Odblacute" unicode="&#x150;" 
 />
    <glyph glyph-name="odblacute" unicode="&#x151;" 
 />
    <glyph glyph-name="OE" unicode="&#x152;" horiz-adv-x="1202" 
d="M1054 593q-42 -1 -76 -12t-60 -33t-45.5 -52.5t-33.5 -70.5l419 1l-34 -125h-419q-5 -19 -8 -37.5t-3 -35.5q-1 -18 3.5 -34t13.5 -30q8 -13 19 -22t26 -12t31.5 -4.5t32.5 -1.5h2h2h1.5h1.5h0.5h1.5l248 1l-33 -125h-255q-34 0 -64.5 3.5t-56.5 10.5q-25 7 -48 22.5
t-43 39.5q-10 -6 -19.5 -11t-18.5 -10l-19 -9.5t-18 -8.5t-18 -8.5t-18 -7.5q-18 -7 -36 -12.5t-36 -8.5q-26 -6 -54 -9t-58 -4q-94 0 -156 22.5t-92 69.5t-33 117t22 162q26 93 65.5 162.5t94.5 115.5q56 47 130 70.5t168 24.5q29 0 54.5 -2.5t46.5 -7.5t41 -13t38 -19
q8 -5 16.5 -11t16.5 -12t16.5 -12.5t17.5 -14.5q2 1 3.5 2t3.5 3q1 1 2.5 2t3.5 2t3.5 2t3.5 3q2 1 3.5 2t3.5 2q29 18 56.5 29.5t54.5 17.5t56.5 9t62.5 4l251 1l-34 -125h-248v0v0zM575 161q17 14 32.5 35t29.5 48t25.5 55.5t18.5 58.5q8 29 12 57.5t5 55.5q0 27 -4 48
t-14 36q-10 14 -23 25t-30 18q-18 7 -37.5 10.5t-40.5 3.5t-42 -3.5t-42 -10.5q-22 -7 -41 -18t-36 -25q-17 -15 -33 -36t-30 -48q-15 -27 -26 -55.5t-19 -57.5q-7 -30 -11.5 -58.5t-4.5 -55.5q-1 -27 4 -48t14 -36q9 -14 23 -24.5t31 -17.5t36.5 -10.5t40.5 -3.5t42 3.5
t43 10.5t41 17.5t35 24.5l1 1v0z" />
    <glyph glyph-name="oe" unicode="&#x153;" horiz-adv-x="919" 
d="M287 112q2 -1 3.5 -2.5t4.5 -2.5q2 0 3 -0.5t3 -0.5q1 -1 2.5 -1h2.5q23 -4 47 -0.5t49 16.5q25 12 45 30.5t35 43.5q5 8 8.5 17t7.5 19q5 10 8 20l6 20q5 22 5 43t-4 40q-4 20 -15 34.5t-30 23.5q-2 1 -4 1.5t-4 1.5q-2 0 -4 0.5t-4 1.5q-4 2 -7.5 2.5t-8.5 1.5
q-23 2 -46.5 -3t-46.5 -17q-25 -13 -43 -30.5t-32 -40.5q-5 -9 -9.5 -18t-8.5 -18t-6.5 -18t-4.5 -18q-7 -24 -7.5 -46t4.5 -43t17.5 -35.5t32.5 -22.5l1 1v0zM688 0q-29 0 -53.5 2.5t-43.5 6.5q-19 5 -35 17t-29 33l-0.5 0.5l-1.5 1.5l-1.5 1.5t-0.5 1.5q-1 1 -1.5 2
t-0.5 2l-0.5 1l-0.5 1q-1 0 -1.5 -1t-1.5 -1q-2 -1 -3.5 -2t-2.5 -2q-3 -1 -5.5 -2.5t-4.5 -3.5q-25 -16 -49.5 -28t-47.5 -20q-24 -8 -49 -12t-53 -5q-61 -2 -107 15.5t-75 54.5q-29 38 -35 88t10 111q17 62 50 112t82 87q49 38 104.5 56t116.5 18q30 -1 55.5 -6t45.5 -15
t38.5 -25t34.5 -35q16 15 32.5 26.5t33.5 19.5q8 4 16.5 7.5t16.5 5.5q24 6 51 9.5t56 3.5l204 1l-30 -110h-185q-29 -1 -53.5 -5.5t-44.5 -12.5t-34.5 -28.5t-24.5 -53.5l316 1l-30 -110h-315q-7 -34 -4.5 -55t17.5 -29q14 -7 36.5 -11t53.5 -4l186 1l-29 -110h-203v0v0z
" />
    <glyph glyph-name="Racute" unicode="&#x154;" 
 />
    <glyph glyph-name="racute" unicode="&#x155;" 
 />
    <glyph glyph-name="Rcaron" unicode="&#x158;" 
 />
    <glyph glyph-name="rcaron" unicode="&#x159;" 
 />
    <glyph glyph-name="Sacute" unicode="&#x15a;" 
 />
    <glyph glyph-name="sacute" unicode="&#x15b;" 
 />
    <glyph glyph-name="Scedilla" unicode="&#x15e;" 
 />
    <glyph glyph-name="scedilla" unicode="&#x15f;" 
 />
    <glyph glyph-name="Scaron" unicode="&#x160;" 
 />
    <glyph glyph-name="scaron" unicode="&#x161;" 
 />
    <glyph glyph-name="Tcedilla" unicode="&#x162;" 
 />
    <glyph glyph-name="tcedilla" unicode="&#x163;" 
 />
    <glyph glyph-name="Tcaron" unicode="&#x164;" 
 />
    <glyph glyph-name="tcaron" unicode="&#x165;" 
 />
    <glyph glyph-name="Uring" unicode="&#x16e;" 
 />
    <glyph glyph-name="uring" unicode="&#x16f;" 
 />
    <glyph glyph-name="udblacute" unicode="&#x170;" 
 />
    <glyph glyph-name="Udblacute" unicode="&#x171;" 
 />
    <glyph glyph-name="Ydieresis" unicode="&#x178;" 
 />
    <glyph glyph-name="Zacute" unicode="&#x179;" 
 />
    <glyph glyph-name="zacute" unicode="&#x17a;" 
 />
    <glyph glyph-name="Zdot" unicode="&#x17b;" 
 />
    <glyph glyph-name="zdot" unicode="&#x17c;" 
 />
    <glyph glyph-name="Zcaron" unicode="&#x17d;" 
 />
    <glyph glyph-name="zcaron" unicode="&#x17e;" 
 />
    <glyph glyph-name="florin" unicode="&#x192;" horiz-adv-x="773" 
d="M784 602q-2 -1 -4.5 -1h-5.5h-2.5t-3.5 1h-2.5h-3.5h-8.5h-9.5h-4.5t-4.5 1h-4.5h-4.5q-9 -1 -17.5 -1.5t-16.5 -1.5t-14.5 -2.5t-11.5 -4.5l-8 -6t-6 -7q-3 -4 -5 -8l-4 -8q-1 -1 -1.5 -2.5t-1.5 -3.5q-1 -1 -1.5 -2t-0.5 -2l-56 -115h123l-31 -116h-147l-135 -291
q-1 -2 -2 -3.5t-2 -3.5v-1.5v-1.5q-1 -1 -1 -1.5v-1.5q-2 -4 -3.5 -7.5t-3.5 -6.5l-3.5 -7t-3.5 -6q-2 -4 -3.5 -7.5t-2.5 -7.5q-2 -4 -3.5 -8t-3.5 -8q-3 -7 -7 -14l-8 -14q-4 -6 -8.5 -13t-9.5 -14q-10 -14 -20.5 -25t-22.5 -20q-4 -3 -8 -5t-8 -5q-13 -6 -25 -10.5
t-26 -7.5q-17 -4 -34 -6t-34 -3h-8t-8 -1h-7.5h-7.5h-7.5h-7.5q-4 1 -7.5 1h-6.5h-8h-8h-8h-8l31 115q1 1 2 1h2h3.5h2.5q26 0 46 2.5t36 7.5q5 1 9.5 4t9.5 8q10 8 19.5 22t18.5 33l144 306h-107l31 116h130l66 142q18 39 36.5 65.5t37.5 41.5q19 14 49 21.5t71 7.5l120 1
l-31 -116v0v0z" />
    <glyph glyph-name="hungarumlaut" unicode="&#x2ba;" horiz-adv-x="500" 
d="M391 729h122l-175 -139h-47l100 139v0v0zM554 729h128l-190 -139h-54l116 139v0v0z" />
    <glyph glyph-name="circumflex" unicode="&#x2c6;" horiz-adv-x="500" 
d="M252 596q20 40 40 64.5t40 33.5t38.5 11.5t36.5 -0.5q2 0 3.5 -0.5t2.5 -0.5q3 -1 6.5 -1.5t5.5 -1.5t4.5 -1.5t5.5 -0.5q2 -1 4.5 -1.5t4.5 -1.5q15 -4 30 -7t28 -4q14 -1 26 8.5t23 28.5l49 1q-20 -42 -40.5 -67t-40.5 -34t-39 -12t-38 0q-5 1 -9.5 2t-8.5 2t-8.5 2.5
t-9.5 2.5q-16 4 -30.5 6t-28.5 3q-13 1 -25 -7.5t-21 -25.5l-49 1v0v0z" />
    <glyph glyph-name="caron" unicode="&#x2c7;" horiz-adv-x="500" 
d="M360 729l65 -73l105 73h70l-134 -139h-116l-60 139h70v0v0z" />
    <glyph glyph-name="macron" unicode="&#x2c9;" horiz-adv-x="500" 
d="M291 699h292l-21 -79h-292l21 79v0v0z" />
    <glyph glyph-name="breve" unicode="&#x2d8;" horiz-adv-x="500" 
d="M356 729q-1 -18 4 -30t15 -18q11 -7 24 -10t29 -3q17 0 32.5 3t28.5 10q14 6 25 18t20 29l65 1q-16 -36 -34.5 -62.5t-39.5 -43.5q-22 -17 -51 -25.5t-67 -8.5q-37 0 -62 8.5t-38 25.5q-12 17 -16 43.5t0 61.5l65 1v0v0z" />
    <glyph glyph-name="dotaccent" unicode="&#x2d9;" horiz-adv-x="500" 
d="M383 726h122l-36 -133h-122l36 133v0v0z" />
    <glyph glyph-name="ring" unicode="&#x2da;" horiz-adv-x="500" 
d="M378 776q3 2 5.5 4t5.5 3q5 4 10.5 7t11.5 6q4 2 8 3.5t8 3.5l8 2l8 2q29 6 52 -2t39 -31q17 -22 18.5 -47t-11.5 -52q-3 -7 -8 -14.5t-11 -15.5q-6 -7 -13 -14t-15 -13q-4 -4 -8.5 -7t-8.5 -6t-8 -5t-9 -4q-8 -4 -15.5 -6t-15.5 -4q-31 -6 -53.5 2.5t-38.5 30.5
q-16 23 -17 47.5t12 52.5q2 4 4 7.5t4 7.5q2 3 4.5 6.5t5.5 7.5q5 7 12.5 13.5t15.5 13.5v1v0zM415 727q-4 -3 -7 -6t-5 -6l-4 -6t-3 -6q-4 -10 -3.5 -19t6.5 -17t15 -11t20 -2q2 0 5 1.5t7 2.5q3 2 6 3.5t7 4.5q3 2 6 4.5t5 5.5q1 2 2 3t2 3q1 1 1.5 2.5t1.5 2.5
q4 11 3.5 20t-6.5 18q-7 8 -15.5 11.5t-19.5 1.5q-1 0 -2 -0.5t-2 -0.5q-2 -1 -3.5 -1.5l-4.5 -1.5t-6 -3.5t-6 -4.5v1v0z" />
    <glyph glyph-name="ogonek" unicode="&#x2db;" horiz-adv-x="500" 
d="M254 -118h49l-23 -86q-2 1 -4.5 1h-4.5h-4.5h-4.5h-10h-10h-4.5h-4.5h-5.5h-4.5q-20 1 -38 4.5t-32 11.5q-15 7 -20 23.5t-1 40.5q5 21 15 39t26 32q17 15 34.5 27t36.5 23q2 1 3.5 1.5t2.5 0.5q2 1 3.5 2t3.5 2l51 1q-2 -1 -3 -2.5t-2 -1.5l-0.5 -0.5t-1.5 -0.5v0v0
h-1.5t-1.5 -1q-10 -7 -20 -14.5t-19 -16.5q-10 -9 -16 -19t-11 -21q-4 -10 -4.5 -18t0.5 -14q2 -6 9 -9.5t17 -3.5v-1v0z" />
    <glyph glyph-name="tilde" unicode="&#x2dc;" horiz-adv-x="500" 
d="M387 729h116l60 -139h-70l-66 73l-104 -73h-70l134 139v0v0z" />
    <glyph glyph-name="Gamma" unicode="&#x393;" 
 />
    <glyph glyph-name="Theta" unicode="&#x398;" 
 />
    <glyph glyph-name="summation" unicode="&#x3a3;" 
 />
    <glyph glyph-name="Phi" unicode="&#x3a6;" 
 />
    <glyph glyph-name="Omega" unicode="&#x3a9;" 
 />
    <glyph glyph-name="alpha" unicode="&#x3b1;" 
 />
    <glyph glyph-name="delta" unicode="&#x3b4;" 
 />
    <glyph glyph-name="epsilon" unicode="&#x3b5;" 
 />
    <glyph glyph-name="pi" unicode="&#x3c0;" 
 />
    <glyph glyph-name="sigma" unicode="&#x3c3;" 
 />
    <glyph glyph-name="tau" unicode="&#x3c4;" 
 />
    <glyph glyph-name="phi" unicode="&#x3c6;" 
 />
    <glyph glyph-name="glyph276" unicode="&#x2013;" horiz-adv-x="500" 
d="M89 333h500l-34 -125h-500l34 125v0v0z" />
    <glyph glyph-name="emdash" unicode="&#x2014;" horiz-adv-x="1000" 
d="M89 333h1000l-34 -125h-1000l34 125v0v0z" />
    <glyph glyph-name="underscoredbl" unicode="&#x2017;" 
 />
    <glyph glyph-name="quoteleft" unicode="&#x2018;" horiz-adv-x="172" 
d="M227 702h94l-74 -273h-94l74 273v0v0z" />
    <glyph glyph-name="quoteright" unicode="&#x2019;" horiz-adv-x="500" 
d="M417 590l-134 139h144l60 -139h-70v0v0z" />
    <glyph glyph-name="quotesinglbase" unicode="&#x201a;" 
 />
    <glyph glyph-name="quotedblleft" unicode="&#x201c;" horiz-adv-x="368" 
d="M231 718h119l-34 -125h-55l-25 -94q-6 5 -10.5 10.5t-7.5 11.5q-2 3 -3.5 6t-3.5 6q-1 2 -2 5l-2 6q-5 15 -6.5 30.5t1.5 31.5t7.5 34.5t11.5 39.5q1 5 2.5 9.5t2.5 8.5q1 5 2.5 9.5t2.5 9.5v1v0zM401 718h119l-34 -125h-55l-25 -94q-6 5 -10.5 10.5t-7.5 11.5
q-2 3 -3.5 6t-3.5 6q-1 2 -2 5l-2 6q-5 15 -6.5 30.5t1.5 31.5t7.5 34.5t11.5 39.5q1 5 2.5 9.5t2.5 8.5q1 5 2.5 9.5t2.5 9.5v1v0z" />
    <glyph glyph-name="quotedblright" unicode="&#x201d;" horiz-adv-x="368" 
d="M397 499l25 94h-55l34 125h119q-1 -6 -2.5 -10.5t-2.5 -9.5q-1 -4 -2.5 -8.5t-2.5 -9.5q-3 -10 -5.5 -20t-5.5 -20q-3 -9 -5.5 -17.5t-5.5 -16.5q-6 -16 -15 -31.5t-23 -30.5q-3 -3 -5.5 -6t-5.5 -5l-6 -6l-6 -6t-6.5 -6t-7.5 -5l-8 -6l-8 -6v1v0zM227 499l25 94h-55
l34 125h119q-1 -6 -2.5 -10.5t-2.5 -9.5q-1 -4 -2.5 -8.5t-2.5 -9.5q-3 -10 -5.5 -20t-5.5 -20q-3 -9 -5.5 -17.5t-5.5 -16.5q-6 -16 -15 -31.5t-23 -30.5q-3 -3 -5.5 -6t-5.5 -5l-6 -6l-6 -6t-6.5 -6t-7.5 -5l-8 -6l-8 -6v1v0z" />
    <glyph glyph-name="quotedblbase" unicode="&#x201e;" horiz-adv-x="368" 
d="M239 -93l25 93h-55l33 125h119q-1 -6 -2.5 -11t-3.5 -10q0 -2 -0.5 -4.5t-1.5 -4.5t-1.5 -4t-0.5 -4q-5 -20 -10 -37.5t-10 -32.5t-13.5 -29t-19.5 -28l-6 -6t-6 -7q-3 -3 -6.5 -6t-6.5 -6q-7 -6 -16 -13l-18 -14v-1v0zM69 -93l25 93h-55l33 125h119q-1 -6 -2.5 -11
t-3.5 -10q0 -2 -0.5 -4.5t-1.5 -4.5t-1.5 -4t-0.5 -4q-5 -20 -10 -37.5t-10 -32.5t-13.5 -29t-19.5 -28l-6 -6t-6 -7q-3 -3 -6.5 -6t-6.5 -6q-7 -6 -16 -13l-18 -14v-1v0z" />
    <glyph glyph-name="dagger" unicode="&#x2020;" horiz-adv-x="500" 
d="M280 394h-145l33 123h145l54 201h150l-54 -201h145l-33 -123h-145l-131 -488h-150l131 488v0v0z" />
    <glyph glyph-name="daggerdbl" unicode="&#x2021;" horiz-adv-x="500" 
d="M205 114h-145l33 122h145l45 170h-145l33 122h145l51 190h150l-51 -190h145l-33 -122h-145l-45 -170h145l-33 -122h-145l-56 -208h-150l56 208v0v0z" />
    <glyph glyph-name="glyph287" unicode="&#x2022;" horiz-adv-x="590" 
d="M274 425q15 22 34 39t44 29q24 12 47.5 17t46.5 3h3.5h2.5q3 -1 6.5 -1.5t5.5 -1.5q5 -1 9.5 -2.5t9.5 -3.5q20 -9 33 -24t20 -35q6 -21 5.5 -42.5t-8.5 -44.5q-2 -6 -4.5 -11.5t-4.5 -10.5l-6 -10l-6 -10q-15 -22 -34.5 -39t-42.5 -29q-24 -12 -46.5 -17t-45.5 -4h-5.5
t-4.5 1q-2 0 -4.5 0.5t-5.5 1.5q-5 2 -10 3.5t-9 3.5q-20 9 -34 23.5t-20 35.5q-7 21 -6 43t11 46q0 2 1 4.5t1 5.5q1 2 2.5 4.5t2.5 4.5q2 5 5 10t7 10v1v0z" />
    <glyph glyph-name="ellipsis" unicode="&#x2026;" horiz-adv-x="1000" 
d="M139 125h120l-33 -125h-120l33 125v0v0zM472 125h120l-33 -125h-120l33 125v0v0zM805 125h120l-33 -125h-120l33 125v0v0z" />
    <glyph glyph-name="perthousand" unicode="&#x2030;" horiz-adv-x="1352" 
d="M232 335q-19 5 -34.5 14t-26.5 22q-10 14 -16 31t-7 38q0 10 1 20.5t2 21.5t3.5 22t5.5 22q2 5 3.5 10t3.5 11q1 5 3 10l4 10q1 2 2 4.5t2 5.5q4 7 7.5 14.5t7.5 14.5q11 21 26.5 38.5t32.5 30.5q18 14 38.5 23t42.5 14q3 1 6 1t6 1l12 2l12 2q8 1 17 1.5t18 0.5
q8 0 16.5 -0.5t17.5 -1.5q8 -1 16.5 -2.5t15.5 -3.5q20 -5 35 -14t25 -23q11 -13 16.5 -30.5t6.5 -38.5v-19.5t-2 -19.5q0 -5 -1 -10l-2 -10q-1 -6 -2 -11t-3 -10q-3 -11 -6.5 -22t-7.5 -22t-9.5 -21.5t-11.5 -20.5q-11 -21 -26 -38t-33 -31q-18 -13 -37.5 -22.5
t-42.5 -14.5q-8 -1 -16 -2.5t-16 -2.5q-9 -1 -17 -2t-16 -1q-10 0 -19.5 0.5t-18.5 1.5t-17.5 2.5t-16.5 3.5v1v0zM392 437q8 6 14.5 15t12.5 21q7 12 11.5 25t8.5 26q3 13 5 25.5t2 24.5q1 12 -1 21t-7 16q-4 6 -9.5 11t-13.5 8t-16.5 4.5t-17.5 1.5t-18 -1.5t-18 -4.5
q-10 -3 -18 -8t-15 -11q-7 -7 -14.5 -16.5t-13.5 -21.5t-11 -24t-8 -25q-4 -13 -5.5 -25.5t-1.5 -24.5q-1 -12 1 -21.5t6 -16.5t9.5 -12t13.5 -8t16 -4.5t17 -1.5t18 1.5t19 4.5q9 3 17.5 8t15.5 12l1 1v0zM278 0l471 717h78l-471 -717h-78v0v0zM642 0q-20 5 -35.5 14
t-25.5 22t-16 30t-7 38q0 10 0.5 20.5t1.5 20.5q2 11 4 21.5t5 21.5t6.5 21.5t7.5 20.5q5 11 10 21l10 20q18 33 42.5 55.5t55.5 35.5t62 19t62 4q7 -1 14 -1.5t14 -1.5q3 -1 6 -1.5t7 -0.5q3 -1 6.5 -1.5t7.5 -1.5q20 -5 34.5 -14t25.5 -23q11 -13 16.5 -30.5t6.5 -38.5
q1 -10 0 -20t-3 -21q-1 -10 -3 -20.5t-5 -21.5t-6.5 -21.5t-8.5 -21.5q-4 -10 -8.5 -20.5t-10.5 -20.5q-12 -21 -27 -37.5t-33 -30.5q-18 -13 -37.5 -22t-41.5 -14q-10 -1 -19.5 -2t-18.5 -2q-10 -1 -19.5 -1.5t-18.5 -0.5q-8 0 -16 0.5t-16 1.5q-4 1 -7.5 1.5t-7.5 0.5
q-4 1 -7.5 1.5t-6.5 0.5v0v0zM802 102q8 6 14 15t12 21q7 12 11.5 25t8.5 26t5.5 25.5t2.5 24.5q0 12 -1.5 21t-6.5 16q-4 6 -9.5 10.5t-13.5 7.5q-4 2 -8 3l-8 2t-8 1.5t-8 0.5q-10 0 -19 -1.5t-18 -4.5q-10 -3 -18 -8t-16 -11q-7 -7 -14 -16.5t-14 -21.5q-6 -12 -10.5 -24
t-8.5 -25t-5.5 -25.5t-1.5 -24.5q-1 -12 1.5 -21.5t6.5 -16.5q3 -7 8.5 -12t13.5 -8t16.5 -4.5t17.5 -1.5h6t6 1q6 0 12 1.5t12 3.5q9 3 17.5 8t16.5 12v1v0zM1073 0q-20 5 -35.5 14t-26.5 22q-10 13 -16 30t-7 38q0 10 0.5 20.5t1.5 20.5q2 11 4.5 21.5t5.5 21.5
q1 3 1.5 5.5t1.5 5.5q2 7 4.5 15t5.5 16q5 11 10 21l10 20q19 33 44 56t56 36q30 12 61 18t62 4q7 -1 13.5 -1.5t13.5 -1.5q3 -1 6 -1.5t7 -0.5q3 -1 6.5 -1.5t7.5 -1.5q20 -5 35 -14t26 -23q10 -13 15.5 -30.5t6.5 -38.5q1 -10 0.5 -20t-2.5 -21q-1 -10 -3 -20.5t-5 -21.5
t-6.5 -21.5t-8.5 -21.5q-4 -10 -9 -20.5t-11 -20.5q-12 -21 -27 -37.5t-32 -30.5q-18 -13 -38 -22t-42 -14h-6t-6 -1h-2.5t-3.5 -1q-4 0 -8.5 -0.5t-9.5 -1.5q-9 -1 -17.5 -1.5t-16.5 -0.5h-8.5t-8.5 1q-5 0 -9 0.5t-9 0.5q-9 1 -16.5 2t-14.5 2v0v0zM1232 102q8 6 14.5 15
t12.5 21q7 12 11.5 25t8.5 26t5.5 25.5t2.5 24.5q0 12 -2 21t-7 16q-4 6 -9.5 11t-12.5 8q-8 3 -17 4.5t-18 1.5q-4 0 -8.5 -0.5t-8.5 -0.5q-5 -1 -9 -2t-9 -3q-10 -3 -18 -8t-16 -11q-7 -7 -14 -16.5t-14 -21.5q-6 -12 -10 -24t-8 -25t-6 -25.5t-2 -24.5q-1 -12 1.5 -21.5
t6.5 -16.5q3 -7 8.5 -12t13.5 -8t16.5 -4.5t17.5 -1.5h6t6 1q6 0 12 1.5t12 3.5q9 3 17.5 8t16.5 12v1v0z" />
    <glyph glyph-name="guilsinglleft" unicode="&#x2039;" horiz-adv-x="398" 
d="M239 263l126 -173h-152l-117 173l218 175h149l-224 -175v0v0z" />
    <glyph glyph-name="guilsinglright" unicode="&#x203a;" horiz-adv-x="398" 
d="M272 264l-125 174h152l117 -174l-218 -174h-149l223 174v0v0z" />
    <glyph glyph-name="exclamdbl" unicode="&#x203c;" 
 />
    <glyph glyph-name="nsuperior" unicode="&#x207f;" 
 />
    <glyph glyph-name="franc" unicode="&#x20a3;" 
 />
    <glyph glyph-name="peseta" unicode="&#x20a7;" 
 />
    <glyph glyph-name="trademark" unicode="&#x2122;" 
 />
    <glyph glyph-name="arrowleft" unicode="&#x2190;" 
 />
    <glyph glyph-name="arrowup" unicode="&#x2191;" 
 />
    <glyph glyph-name="arrowright" unicode="&#x2192;" 
 />
    <glyph glyph-name="arrowdown" unicode="&#x2193;" 
 />
    <glyph glyph-name="arrowboth" unicode="&#x2194;" 
 />
    <glyph glyph-name="arrowupdn" unicode="&#x2195;" 
 />
    <glyph glyph-name="arrowupdnbase" unicode="&#x21a8;" 
 />
    <glyph glyph-name="partialdiff" unicode="&#x2202;" 
 />
    <glyph glyph-name="Delta" unicode="&#x2206;" 
 />
    <glyph glyph-name="product" unicode="&#x220f;" 
 />
    <glyph glyph-name="minus" unicode="&#x2212;" 
 />
    <glyph glyph-name="fraction" unicode="&#x2215;" 
 />
    <glyph glyph-name="periodcentered" unicode="&#x2219;" horiz-adv-x="198" 
d="M72 125h120l-33 -125h-120l33 125v0v0z" />
    <glyph glyph-name="radical" unicode="&#x221a;" 
 />
    <glyph glyph-name="infinity" unicode="&#x221e;" 
 />
    <glyph glyph-name="orthogonal" unicode="&#x221f;" 
 />
    <glyph glyph-name="intersection" unicode="&#x2229;" 
 />
    <glyph glyph-name="integral" unicode="&#x222b;" 
 />
    <glyph glyph-name="approxequal" unicode="&#x2248;" 
 />
    <glyph glyph-name="notequal" unicode="&#x2260;" 
 />
    <glyph glyph-name="equivalence" unicode="&#x2261;" 
 />
    <glyph glyph-name="lessequal" unicode="&#x2264;" 
 />
    <glyph glyph-name="greaterequal" unicode="&#x2265;" 
 />
    <glyph glyph-name="house" unicode="&#x2302;" 
 />
    <glyph glyph-name="revlogicalnot" unicode="&#x2310;" 
 />
    <glyph glyph-name="integraltp" unicode="&#x2320;" 
 />
    <glyph glyph-name="integralbt" unicode="&#x2321;" 
 />
    <glyph glyph-name="2500" unicode="&#x2500;" 
 />
    <glyph glyph-name="2502" unicode="&#x2502;" 
 />
    <glyph glyph-name="250c" unicode="&#x250c;" 
 />
    <glyph glyph-name="2510" unicode="&#x2510;" 
 />
    <glyph glyph-name="2514" unicode="&#x2514;" 
 />
    <glyph glyph-name="2518" unicode="&#x2518;" 
 />
    <glyph glyph-name="251c" unicode="&#x251c;" 
 />
    <glyph glyph-name="2524" unicode="&#x2524;" 
 />
    <glyph glyph-name="252c" unicode="&#x252c;" 
 />
    <glyph glyph-name="2534" unicode="&#x2534;" 
 />
    <glyph glyph-name="253c" unicode="&#x253c;" 
 />
    <glyph glyph-name="2550" unicode="&#x2550;" 
 />
    <glyph glyph-name="2551" unicode="&#x2551;" 
 />
    <glyph glyph-name="2552" unicode="&#x2552;" 
 />
    <glyph glyph-name="2553" unicode="&#x2553;" 
 />
    <glyph glyph-name="2554" unicode="&#x2554;" 
 />
    <glyph glyph-name="2555" unicode="&#x2555;" 
 />
    <glyph glyph-name="2556" unicode="&#x2556;" 
 />
    <glyph glyph-name="2557" unicode="&#x2557;" 
 />
    <glyph glyph-name="2558" unicode="&#x2558;" 
 />
    <glyph glyph-name="2559" unicode="&#x2559;" 
 />
    <glyph glyph-name="255a" unicode="&#x255a;" 
 />
    <glyph glyph-name="255b" unicode="&#x255b;" 
 />
    <glyph glyph-name="255c" unicode="&#x255c;" 
 />
    <glyph glyph-name="255d" unicode="&#x255d;" 
 />
    <glyph glyph-name="255e" unicode="&#x255e;" 
 />
    <glyph glyph-name="255f" unicode="&#x255f;" 
 />
    <glyph glyph-name="2560" unicode="&#x2560;" 
 />
    <glyph glyph-name="2561" unicode="&#x2561;" 
 />
    <glyph glyph-name="2562" unicode="&#x2562;" 
 />
    <glyph glyph-name="2563" unicode="&#x2563;" 
 />
    <glyph glyph-name="2564" unicode="&#x2564;" 
 />
    <glyph glyph-name="2565" unicode="&#x2565;" 
 />
    <glyph glyph-name="2566" unicode="&#x2566;" 
 />
    <glyph glyph-name="2567" unicode="&#x2567;" 
 />
    <glyph glyph-name="2568" unicode="&#x2568;" 
 />
    <glyph glyph-name="2569" unicode="&#x2569;" 
 />
    <glyph glyph-name="256a" unicode="&#x256a;" 
 />
    <glyph glyph-name="256b" unicode="&#x256b;" 
 />
    <glyph glyph-name="256c" unicode="&#x256c;" 
 />
    <glyph glyph-name="upblock" unicode="&#x2580;" 
 />
    <glyph glyph-name="dnblock" unicode="&#x2584;" 
 />
    <glyph glyph-name="block" unicode="&#x2588;" 
 />
    <glyph glyph-name="lfblock" unicode="&#x258c;" 
 />
    <glyph glyph-name="rtblock" unicode="&#x2590;" 
 />
    <glyph glyph-name="ltshade" unicode="&#x2591;" 
 />
    <glyph glyph-name="shade" unicode="&#x2592;" 
 />
    <glyph glyph-name="dkshade" unicode="&#x2593;" 
 />
    <glyph glyph-name="filledbox" unicode="&#x25a0;" 
 />
    <glyph glyph-name="filledrect" unicode="&#x25ac;" 
 />
    <glyph glyph-name="triagup" unicode="&#x25b2;" 
 />
    <glyph glyph-name="triagrt" unicode="&#x25ba;" 
 />
    <glyph glyph-name="triagdn" unicode="&#x25bc;" 
 />
    <glyph glyph-name="triaglf" unicode="&#x25c4;" 
 />
    <glyph glyph-name="lozenge" unicode="&#x25ca;" 
 />
    <glyph glyph-name="circle" unicode="&#x25cb;" 
 />
    <glyph glyph-name="invbullet" unicode="&#x25d8;" 
 />
    <glyph glyph-name="invcircle" unicode="&#x25d9;" 
 />
    <glyph glyph-name="smileface" unicode="&#x263a;" 
 />
    <glyph glyph-name="invsmileface" unicode="&#x263b;" 
 />
    <glyph glyph-name="sun" unicode="&#x263c;" 
 />
    <glyph glyph-name="female" unicode="&#x2640;" 
 />
    <glyph glyph-name="male" unicode="&#x2642;" 
 />
    <glyph glyph-name="spade" unicode="&#x2660;" 
 />
    <glyph glyph-name="club" unicode="&#x2663;" 
 />
    <glyph glyph-name="heart" unicode="&#x2665;" 
 />
    <glyph glyph-name="diamond" unicode="&#x2666;" 
 />
    <glyph glyph-name="musicalnote" unicode="&#x266a;" 
 />
    <glyph glyph-name="musicalnotedbl" unicode="&#x266b;" 
 />
    <glyph glyph-name="apple" unicode="&#xf000;" 
 />
    <glyph glyph-name="fi" unicode="&#xf001;" 
 />
    <glyph glyph-name="fl" unicode="&#xf002;" 
 />
    <glyph glyph-name="degree" horiz-adv-x="500" 
d="M378 776q3 2 5.5 4t5.5 3q5 4 10.5 7t11.5 6q4 2 8 3.5t8 3.5l8 2l8 2q29 6 52 -2t39 -31q17 -22 18.5 -47t-11.5 -52q-3 -7 -8 -14.5t-11 -15.5q-6 -7 -13 -14t-15 -13q-4 -4 -8.5 -7t-8.5 -6t-8 -5t-9 -4q-8 -4 -15.5 -6t-15.5 -4q-31 -6 -53.5 2.5t-38.5 30.5
q-16 23 -17 47.5t12 52.5q2 4 4 7.5t4 7.5q2 3 4.5 6.5t5.5 7.5q5 7 12.5 13.5t15.5 13.5v1v0zM415 727q-4 -3 -7 -6t-5 -6l-4 -6t-3 -6q-4 -10 -3.5 -19t6.5 -17t15 -11t20 -2q2 0 5 1.5t7 2.5q3 2 6 3.5t7 4.5q3 2 6 4.5t5 5.5q1 2 2 3t2 3q1 1 1.5 2.5t1.5 2.5
q4 11 3.5 20t-6.5 18q-7 8 -15.5 11.5t-19.5 1.5q-1 0 -2 -0.5t-2 -0.5q-2 -1 -3.5 -1.5l-4.5 -1.5t-6 -3.5t-6 -4.5v1v0z" />
    <glyph glyph-name="bullet" horiz-adv-x="590" 
d="M274 425q15 22 34 39t44 29q24 12 47.5 17t46.5 3h3.5h2.5q3 -1 6.5 -1.5t5.5 -1.5q5 -1 9.5 -2.5t9.5 -3.5q20 -9 33 -24t20 -35q6 -21 5.5 -42.5t-8.5 -44.5q-2 -6 -4.5 -11.5t-4.5 -10.5l-6 -10l-6 -10q-15 -22 -34.5 -39t-42.5 -29q-24 -12 -46.5 -17t-45.5 -4h-5.5
t-4.5 1q-2 0 -4.5 0.5t-5.5 1.5q-5 2 -10 3.5t-9 3.5q-20 9 -34 23.5t-20 35.5q-7 21 -6 43t11 46q0 2 1 4.5t1 5.5q1 2 2.5 4.5t2.5 4.5q2 5 5 10t7 10v1v0z" />
    <glyph glyph-name="endash" horiz-adv-x="500" 
d="M89 333h500l-34 -125h-500l34 125v0v0z" />
  </font>
</defs>
</svg>
